<svg id="Camada_1" data-name="Camada 1" xmlns="http://www.w3.org/2000/svg" viewBox="0 0 450.38 556.56"><defs><style>.cls-1{fill:#20120d;}.cls-2{fill:#ea5f34;}.cls-3{fill:#ed6e39;}.cls-4{fill:#fbebf4;}.cls-5{fill:#eb6636;}.cls-6{fill:#f7d4e6;}.cls-7{fill:#e44330;}.cls-8{fill:#e9ccda;}.cls-9{fill:#e65133;}.cls-10{fill:#da332f;}.cls-11{fill:#bc1a23;}.cls-12{fill:#fce7de;}.cls-13{fill:#e8b8a6;}.cls-14{fill:#240b00;}</style></defs><path class="cls-1" d="M195.07,540.57c5.45-3.46,10.72-7.34,17.63-7.26a1.93,1.93,0,0,0,1-.19c1.53-1,1.31-10.28-.27-11.28-5.29-3.35-10.36-7.17-11.44-13.69-.71-4.27-2.22-4.48-6.05-4a270.3,270.3,0,0,1-46.13,1.53,190.62,190.62,0,0,1-33-4.27c-11.13-2.51-16.07-9.55-16.28-22.51-.2-12.81,4.11-24.44,9.39-35.85,9.34-20.17,22-38.19,35.14-56,12.05-16.41,23.51-33.21,33.33-51.1,2.94-5.37,6-11,11.5-14.09s11-6.47,16.59-9.51c6-3.28,12.87-4.38,19.69-4.84,2.08-.15,2.37-.85,2.36-2.65-.06-7,.23-13.93,0-20.88-.19-5.94,3.14-9.25,7.75-12a48.52,48.52,0,0,1-5.36-11.41,3.26,3.26,0,0,0-1.84-2.31,16.34,16.34,0,0,1-2.19-1.7c-15.26-10.64-15.58-22.11-12.2-41.11.34-1.9,1.27-4.06,3.15-4.78,2.75-1.05,2.26-2.83,2-4.92a113.63,113.63,0,0,1,3.34-46,38.55,38.55,0,0,1,16.74-22.27c14.19-9.12,29.57-15.06,46.59-14.48A79.55,79.55,0,0,1,334.61,141c8.65,7,12.42,16.8,14.22,27.41,2.23,13.07,3.1,26.21.9,39.41-.11.66-.68,1.6.64,1.93,3.91,1,4.85,4.17,5.58,7.53a56.08,56.08,0,0,1,.51,21.75c-1.48,8.35-7.6,13.28-13.84,18a16.55,16.55,0,0,0-4.8,6.26c-2.27,4.43-3.24,7.82,2,11.08,2.64,1.66,3.69,4.93,3.59,8.53-.25,9.16,0,18.33-.12,27.49a3.54,3.54,0,0,0,1.93,3.61,69.5,69.5,0,0,0,18.47,7.61,2.5,2.5,0,0,0,2.25-.22c6.17-4,12.21-2.67,17.92.9,12.88,8.06,20.33,19.94,23.44,34.61.63,3,1.84,4.87,4.65,6.07,4.49,1.91,9.24,2.86,13.89,4.19,5.41,1.54,7.25,3.9,7.28,9.42,0,3.83.26,7.68-.08,11.48-.27,3,.87,5.21,2.49,7.59,9,13.14,20,24.58,30.23,36.65,9.42,11.09,15.92,23.77,18.41,38.26,3.46,20.17-2.48,36.75-19,49.23a80.91,80.91,0,0,1-9.44,6.48c-7,3.87-13.81,3.85-20.7-.21a100.7,100.7,0,0,1-20.93-17.08c-2.65-2.74-5.25-2.73-7.93-3.09-11.91-1.6-23.74-3.61-35.58-5.59-6.06-1.94-11.77-1.35-17.84.83-12.89,4.62-26.41,5.63-40,5.31-3.84-.57-7.71-1-11.52-1.77-3.64-.71-6.06-3-6.51-6.74-1.57-13.25-2.37-26.52.05-39.74,1.27-6.93,3.74-8,10.46-7.82,7.38.26,14.74,1.2,22.11,1.78a4.85,4.85,0,0,1,3.24,1.63,88.47,88.47,0,0,0,17.4,13.14c1.18.69,2.3,1.71,3.74.52,4.52-.71,8.91-1.13,12.4-5,3.87-4.34,8.63-7.89,10.48-13.74.44-7.45.71-14.91,1.39-22.34a10.63,10.63,0,0,0-.79-6.23l-.46-.8a.6.6,0,0,0-.13-.56,9.62,9.62,0,0,0-.25-1.34q-7.55-22.11-13.25-44.76c-.35-1.37-1.67-3.51.72-4.05s2,2,2.42,3.35c1.58,5.42,3.05,10.87,4.57,16.3l.41,1.24a38.31,38.31,0,0,0,1.47,5.57c1,2.29.39,5.23,2.82,6.92l-.1,1.36a345.29,345.29,0,0,0,14,39.44,20.83,20.83,0,0,0,4.87,7.13c3.38,3.17,4.38,3.26,8.28.85l3.81-2.39c3.6-.57,6-3.51,9.1-4.83a71,71,0,0,1,31-6c4.09.18,8,1.11,11.05,4.16a1.91,1.91,0,0,1-2.17,2.19l-.71-.08c-4.66-3.74-9.89-3.64-15.29-2.42,5.25-.16,10.22,1.57,15.32,2.38,0,.5.27.62.68.6a34.78,34.78,0,0,1,12.55,9.11c.23.4.48.78.68,1.2.58,1.24,2.43,2.49.59,3.86-2,1.51-2.53-.85-3.24-1.88a25.4,25.4,0,0,0-10.34-8.49c-6.19-2.93-12.83-3.46-20.49-3.53a56.23,56.23,0,0,1,17.54,8.18l.6.52a.54.54,0,0,0,.5.28c3.88,3.78,7.88,7.45,11.15,11.81.93,1.24,2.48,2.2,2.23,4.1-2,1.8-3,.21-4.12-1.18-3.34-4.12-6.56-8.36-11-11.4-11.56-10.94-31.67-12.49-44.71-4.71,8.12-.14,15.06-4.36,22.82-3.46a38.72,38.72,0,0,1,21.08,8.88c12.12,12.43,13.79,26.73,7.7,42.49-1,2.56-2.6,4.87-3,7.65-1,1.92-2,3.87-3.05,5.78-3.36,6.17-7.39,7.66-13.8,4.8-3.89-1.74-7.6-3.9-11.42-5.8-1-.5-1.94-1.65-3.6-.83,4.88,4.33,9.58,8.62,15.21,11.64,5.44,2.92,11,3.09,16.53,0a84.45,84.45,0,0,0,7.36-4.58c19-13.21,23.56-32.76,19.31-50.7l-.07-.72-.49-1.45a24,24,0,0,0-.46-2.36c-4-13.48-11.73-24.79-21.11-35-6.47-7.07-13.71-13.46-18.77-21.75-.53-2.11-2.15-3.5-3.48-5.07-7.59-9-15.85-17.35-24.22-25.61-1.22-1.2-2.4-2.28-.87-4,3.34.29,4.24,3.81,6.81,5.13l12,10.51c0-3.07-.12-7.2,0-11.33.15-3.73-1.83-5.73-5.12-6.27-5.47-.91-10.57-3-15.87-4.46l-2.77-2-1.38-.86-6.94-5.41c.72-2.84.72-2.84,6.05.17-.19-11.78-14.83-31.41-25.94-34.88-5.28-1.65-9.47-.09-12.91,4a5.48,5.48,0,0,0-.83.6c-30.13,30.49-63.81,56.46-100.3,78.87-16.87,10.36-34.4,19.49-52.13,28.24l-1.29.51-.69.45a5.54,5.54,0,0,0-2.79,1.3c-2.74.21-3.15,2.29-3.42,4.39a16.2,16.2,0,0,0,5.82,15.28c.89.75,1.51,1.55.7,2.64s-1.86.66-2.73,0c-1.18-.87-2.28-1.84-3.7-3a47.63,47.63,0,0,1-.32,5.3c-.54,3.26.92,4.39,4,4.78,5.26.66,10.47,1.69,15.7,2.57a5.89,5.89,0,0,0,4.31-.39c5.22-3.08,10.35-6.26,14.77-10.47a10.67,10.67,0,0,0,1.91-1.45c2.19-2.65,4.9-3.62,8.37-3.84,4.13-.25,8.33-.07,12.4-1.11,5.18-.31,10.38-.42,15.53-1,7-.74,9.89,1.56,10.95,8.64,1.79,11.9,1.23,23.75,0,35.64-.7,7.1-1.7,8.46-8.39,10.47l-8.27.76c-16.33,1.55-32.37.39-47.87-5.35a8.92,8.92,0,0,0-4.75-.4q-6.51,1.08-13,2.23c-4.62.81-5.4,2.27-3.42,6.61a17.53,17.53,0,0,0,2.2,3.51c6.42,8.14,14.88,10.15,24.55,7.71a25.73,25.73,0,0,1,14.32.1c5.8,3.3,11.81,3.51,18,1.28,4.26-1.53,8.69-2.2,12.78.15,5.74,3.32,11.34,3.21,17.2.49a10.54,10.54,0,0,1,10,.15c4.35,2.48,8.78,2.35,13.4.93,5.26-1.62,10.43-1.64,15.47,1.11a9.44,9.44,0,0,0,6.72.9q4-.95,8.1-1.82c2.87-.62,5.81-1.89,8.61-1.64,4.85.44,8-.65,10.15-5a18.05,18.05,0,0,0,1.92-9.75c.79-1.82-1.32-4.46,1.59-5.69,1.92.27,1.92,1.72,1.89,3.14-.16,7.63-.45,15.21-8.06,19.8-1.49.9-.78,2.55-1.2,3.81a43.2,43.2,0,0,0-1.11,5.25c6.74.77,11.82,3.79,14.31,10.37.5,1.33,1.69,1.05,2.68.8,11.06-2.82,22.05-1.25,33,.52,3.53.57,7.28.59,10.56,1.83,6.72,2.53,13.48.83,20.22,1.07,12.35.43,23.65,4.81,34.87,9.41,4.26,1.74,8.45,3.68,12.64,5.59,10.65,4.87,16.49,13.43,18.56,24.7a235.46,235.46,0,0,1,3.54,42.83c0,9.52-3.9,16.74-12.23,21.43-24.32,13.72-49.85,24.06-77.9,26.95a78.66,78.66,0,0,1-19.75-.26l-12.39-2.44c-11.82-3.71-23.44-8.11-35.67-10.4-11.57-2.18-23.31-2.87-35.05-3.63-17.07-1.12-34.13-2.11-51.24-2a6.59,6.59,0,0,0-1.63-.44c-8.34,0-16.69-.23-25,.08-6.79.25-13.59.88-20.07,3.23-11.62,2.71-22.7,7.19-34.2,10.28l-1.31.24-1.53.22-1.26.41a4.28,4.28,0,0,0-2.9.39l-3.36.41-1.52.21-8.94.49c-33.76-1.12-64.21-12.66-93-29.41-7-4.05-10.92-9.92-11.2-18-.58-16.59.21-33.11,3.67-49.39,2.49-11.69,9.22-20.25,20.24-25.24.83-.38,1.59-.91,2.38-1.36,1.06-.4,2.14-.77,3.19-1.21,14.43-6.09,28.87-12.12,44.83-12.84,14.76.81,29,4.57,43.37,7.6,5.06,1.07,8.93.47,12.31-3.33A6.83,6.83,0,0,0,195.07,540.57Zm172,15.31,0,0-.72.63h0l-.73.69,0,0c-1.33,1.1-2.72,2.13-4,3.3-9.42,8.68-18.81,17.41-30.82,22.57-1.34-.47-3.28,2.13-4.06-.46-.7-2.34,1.77-2.31,3.09-2.86a64.81,64.81,0,0,0,19.06-12.31c8.14-6.4,15.11-14.18,23.53-20.27,1.36-1,1.21-2.06.22-3.2l-.21-.68-.52-.75c-1.53-3-4.25-4.46-7.33-5.34-2-.57-3.62-.26-4.12,2.24s-2.45,4-4.66,5.22c-3.75,2.09-8,2.06-12,3a203.84,203.84,0,0,1-38.06,5.21A272.84,272.84,0,0,1,259,550.82c-11.81-1.46-23.59-3.15-35.15-6.1-3.55-.9-7.07-2.19-8.63-5.75-1-2.4-2.34-2.58-4.54-2.22-7.83,1.28-13.3,6.54-19.79,11.23,3.31.65,6.09,1.23,8.88,1.73,1.78.32,2.76,1.1,2.12,3a5.39,5.39,0,0,1-3.41.18c-13-2.62-26-5.2-39-7.9-11.68-2.43-23.33-4.64-35.28-1.76a81.57,81.57,0,0,0-20,7.13h6.15c8.94,1.84,17.49,4.68,25.17,9.75,1.92,1.64,3.85,3.27,5.75,4.93.87.76,1.35,1.75.55,2.73s-1.81.49-2.68-.25c-1.77-1.48-3.49-3.05-5.38-4.36A49,49,0,0,0,104.48,554c5.29,1.18,10.18,3.45,15.19,5.42a3.74,3.74,0,0,0,2.3,1.31h0l.67.49,1.83,1a3.67,3.67,0,0,0,2.23,1.47v0c1.87,1.69,3.78,3.35,5.59,5.1,5.09,4.9,9,10.81,13.78,16,4.34,4.69,9,8.92,15.61,10.18,5.93,2.31,12.12,1.09,18.2,1.3,1.24,0,2.66-.48,3,1.42a2.38,2.38,0,0,1-1.7,1.78c-8,.61-15.89.38-23.62-2l-4.17-1.93c-5.44-3.57-9.65-8.42-13.93-13.22-5.17-7.17-10.86-13.81-18.8-18.1l-.74-.5a.72.72,0,0,0-.57-.23,40.74,40.74,0,0,0-23.81-6.22C85.24,556,73.62,563.88,71.06,573.8a30.68,30.68,0,0,0-1.43,3.84c-4.14,17.17-4.74,34.63-3.93,52.15a14.7,14.7,0,0,0,6.64,11.71A173.13,173.13,0,0,0,103,657.56c.47.19,1.25,1.06,1.58-.2.62-2.44,2.21-1.71,3.83-1.31a124,124,0,0,0,35.49,3.32c21.31-1,42.23-5.28,63.35-7.81a205.16,205.16,0,0,1,26-1.62c1.18,0,2.81-.18,2.82,1.74s-1.59,1.6-2.8,1.62c-4.06.1-8.12,0-12.17.26-20.8,1.38-41.26,5.57-62,7.81a165.89,165.89,0,0,1-35.71.49c-4.22-.45-8.42-1-12.63-1.57a32.32,32.32,0,0,0,5.81,2.44c15,5,30.14,8.94,46,9.87,14.37.85,28-3,41.31-7.74a140.91,140.91,0,0,1,51-8.37c24.43.62,48.84,1.37,73.24,2.9A187.48,187.48,0,0,1,380,669.68c4.73,1.69,9.52,3.46,14.62,4a41.23,41.23,0,0,0,12.95,2,26.3,26.3,0,0,0,11.51,0,47.16,47.16,0,0,0,14.54-2.09,25.14,25.14,0,0,0,10.11-2.08c1.92.65,3-1.22,4.76-1.53,7-1.23,13.38-4.36,20-6.69a150.76,150.76,0,0,0,30.34-14.72c.51,0,1-.14,1.13-.73l-.05,0c2.82-1.38,5.19-3.21,6.31-6.29l0,0c.91-.34.71-1.11.71-1.81,2.17-2.55,1.82-5.76,2-8.7a157.43,157.43,0,0,0-.76-25.32c-.79-7.43-1.26-15-3.8-22.11-.22-.46-.44-.93-.67-1.39-1.83-7.8-7.44-12.32-14-15.83a156.8,156.8,0,0,0-26.17-11c-11-3.5-22.16-5.59-33.77-3.22-16.06,3.28-32.16,6.42-48.23,9.64-1.32.27-2.72.62-3.16-1-.48-1.85,1.08-1.92,2.35-2.17,9.17-1.85,18.36-3.61,27.5-5.61,4.2-.92,8.57-1.24,13.24-3-8.89-1.54-17.09-3.09-25.4-3.54-9.83-.52-19.46.19-27,7.83l-1.21,1-.09,0Zm-87.69-191.5,0,.05a3.06,3.06,0,0,0-1.56,1.94l0,0-18,19.62-14.66,14.67Q229.41,415.15,213,428.89c-.67.29-1.34.57-1.6,1.38,1,.42,1.45-.4,2.13-.66.43-.17.87-.32,1.29-.52a538.43,538.43,0,0,0,106.29-67.4c10.87-8.83,21.71-17.75,31.37-28l4.38-4.32c1.17-1.86,3.8-2.4,4.58-5A65.07,65.07,0,0,1,343.84,317c-1.38-.83-1.68-.19-2.16,1a20.5,20.5,0,0,1-5.17,6.88,94.4,94.4,0,0,1-41.39,22.88c-1.4.36-2.82.51-3.89,1.9-3.66,4.76-7.48,9.4-11.25,14.08ZM209,363.64c.21-4-.53-7.95-1-11.91a162.05,162.05,0,0,0-4.11-24.56c-1.77-6.79-3.58-7.49-9.85-4.2a21.28,21.28,0,0,0-5.7,4.49,46.4,46.4,0,0,0-6.36,9.07,494,494,0,0,1-29,45.21c-10.44,14.7-21.75,28.8-30.55,44.62-7.39,13.28-14.92,26.52-17.75,41.75-1.15,4.33-1,8.75-.77,13.15.6,10.13,4.59,14.64,14.55,16.9,19.42,4.4,39.06,5.46,58.9,4.38a274.77,274.77,0,0,0,42-5.3,17.4,17.4,0,0,1,10.07.8c17.06,6.3,34.67,6.18,52.4,4,3.64-.44,6.08-2.24,6.23-6.16.34-8.33,1.52-16.63.83-25a54.1,54.1,0,0,0-1.05-12.38c-.77-4.41-1.95-5.3-6.32-5-5.41.34-10.8,1-16.19,1.49-8.43.27-17.17-.44-23.33,7.21a4.38,4.38,0,0,1-.83.62,98.24,98.24,0,0,1-10.84,7.46,10.27,10.27,0,0,1-8.49,1.55c-4.49-1.07-9.13-1.47-13.67-2.34-16.57-3.15-33.07-6.57-48.68-13.25-5.76-2.47-11.55-4.8-18-4.14-1.17.12-2.13-.17-2.22-1.55s1-1.56,2.09-1.66a32.34,32.34,0,0,1,12.94,1.91c4.72,1.53,4.7,1.59,7.39-2.76.6-.68,1.25-1.33,1.8-2.06,8.63-11.43,15.11-24.29,23.7-35.76,7.89-10.55,16.07-21.05,15.81-35.29a1.52,1.52,0,0,1,1.72-1.71c1.12.09,1.55.82,1.5,1.92q-.12,2.43-.12,4.86c0,5.92,0,11.83,0,17.56a63.94,63.94,0,0,0,3.47-21.35C209.63,372,210,367.79,209,363.64Zm70.26-14.58-2.09,0a4,4,0,0,0-2.74-.76,16,16,0,0,0-1.54-.68,95,95,0,0,1-37.19-21.48,23.14,23.14,0,0,1-6.29-9c-.74-2.07.22-5.29-2-6.08s-4.77.15-7.16.5c-1.71.25-3.35.9-5.06,1.14-2.87.41-3.2,1.47-1.34,3.64a5.6,5.6,0,0,1,1.38,4.19c-1.38,1.14-2.43,1-3.27-.71a29.69,29.69,0,0,0-2.15-3.53,1.69,1.69,0,0,0-2.57-.68c-1.79,1-.24,1.81.16,2.43,5.06,8,7.8,16.88,9.37,26.16A118.92,118.92,0,0,1,218.15,360c0,9,.46,18.08-.44,27.1-1.21,12.09-6.78,22.44-13.27,32.4a19.23,19.23,0,0,0-3.39,9.65c-.06,1.28-.38,3.15.92,3.77,1.07.52,1.7-1.24,2.61-1.89.75-.53,1.45-1.15,2.18-1.72a361.53,361.53,0,0,0,28.72-24.59,280.46,280.46,0,0,0,20.82-20.27c9.51-9.47,18.25-19.64,26.78-30,.5-.61,1.75-1.32.54-2.24C282.19,351.17,282.06,348.28,279.28,349.06Zm50.9-57c4.55-2.63,8.3-5.76,7.41-11.81a15.55,15.55,0,0,0-1.21-2.83c-2.47-3.57-4.06-3.58-6.79-.34-1.64,1.95-3.16,4.18-5.22,5.55-4.69,3.14-4.27,7.37-3.49,12,.3,1.78,1,1.84,2.29,1.17C325.51,294.51,327.84,293.26,330.18,292Zm9.59,19.42c.53-7.75.2-15.48,0-24.19-2.53,4.34-5.88,6.38-9,8.67a114.47,114.47,0,0,1-25.28,9.1,2.63,2.63,0,0,0-2.24,2.17c-3.43,12.15-6.61,24.37-9.2,37.05a17.46,17.46,0,0,0,6.14-1.59,87.56,87.56,0,0,0,34.69-20.9C337.74,318.93,339.84,315.69,339.77,311.44ZM276.5,340c-1.87-11-5.08-21.56-8-32.25a2.55,2.55,0,0,0-2.26-1.83,103.59,103.59,0,0,1-26.53-9.83,31.86,31.86,0,0,1-7.8-7.84c0,8.57,0,16.18,0,23.78a13,13,0,0,0,3.64,9.14C247.18,333.33,261.4,341,278,345.59,277.44,343.44,277.43,341.61,276.5,340Zm-39,198.58a84.43,84.43,0,0,1-20-5.67c-.41,3.86,1.26,6.21,4.23,7.58a28.7,28.7,0,0,0,6.57,2.14c20.71,3.89,41.52,6.87,62.66,7.19,20.39.31,40.45-1.77,60.1-7.34,5.67-1.61,6.43-2.86,6.27-8.6-.06-2.11-.91-2.58-2.75-2.39-3.23.33-6.46.56-9.69.86a472.66,472.66,0,0,1-76.37.38c-5.88-.41-11.74-1.2-17.61-1.81-1.26-.13-2.43-.51-2.12-2.07s1.57-1.06,2.56-1c5.18.48,10.36,1.12,15.56,1.47,19.78,1.32,39.56,2.07,59.39.95,9.36-.53,18.72-1,28-2.11.8-.1,2.19.33,2.16-1.06,0-1.56-1.5-1.15-2.44-1.17-3-.05-5.93.92-8.81,1.77-4.93,1.45-9.78,1.78-14.5-.74-3.6-1.93-7.33-1.8-11.13-.75-5.72,1.59-11.34,2-16.86-.93-2.93-1.57-5.9-.7-8.68.61a16.26,16.26,0,0,1-15.33-.23,16.53,16.53,0,0,0-14.12-.92,22.07,22.07,0,0,1-17.51-.56,17,17,0,0,0-9.82-1.54c-5.69,1-11.35,2.3-17.2,1.27-.72-.13-1.58-.43-2,.68a4.81,4.81,0,0,0,2.7,6.12,87.74,87.74,0,0,0,31.93,5.7,10.61,10.61,0,0,0,2,.46c22.29,1.12,44.59,2.55,66.9.77,7.79-.62,15.64-1.19,23.24-3.27l1.34-.2a2.48,2.48,0,0,0,2.29-.53c1.79-.27,3.57-.56,5.36-.8a1.47,1.47,0,0,1,1.76,1.22,1.37,1.37,0,0,1-.89,1.64c-.73.31-1.5.51-2.26.76l-23,3.95-2,.18c-2-.06-4-.32-5.84.54l-8.81.23c-1.93.21-3.93-.42-5.81.47l-17.11,0c-.79-.66-1.75-.45-2.65-.46C270.54,541.12,254,540.42,237.51,538.55Zm217.65-43.28a35.32,35.32,0,0,0,.91-19.85c-4.07-15.8-21.72-26.66-37.08-22.63-6.93,1.82-13.67,4.36-20.58,6.26-15.66,4.3-31.37,8.4-47.06,12.6a4,4,0,0,1-3.25-.71,110.32,110.32,0,0,1-19-14,5.58,5.58,0,0,0-3.63-1.67q-11.08-.85-22.15-1.78c-2.93-.24-4.62,1.17-5.19,4a57.35,57.35,0,0,0-1.39,16.21c-.63,7.55.45,15,.81,22.55.18,3.87,2,5.32,6.46,5.86,17.48,2.12,34.64.93,51.28-5.21a16.89,16.89,0,0,1,9.88-1.06c15.36,3.22,30.88,5.58,46.46,7.47,12.08,1.46,24.15,1.92,36.13-1.09C451.68,501.23,454.85,499.88,455.16,495.27ZM222.8,202.11c.17,1.95.24,3.92.51,5.86,1.59,11.57,4.27,22.93,6.68,34.34,1.77,8.42,2.67,17.18,7.24,24.78,8,13.37,19.85,22.73,33.09,30.4,6.11,3.53,12.91,3.95,19.83,3,9-1.24,15.88-6.38,22.51-12,1.37-1.06,2.77-2.07,4.1-3.17,10.35-8.52,18.33-18.55,20.93-32.15q2.15-11.23,4.66-22.4c4.5-19.75,7.35-39.58,3.77-59.85-1.78-10.11-4.61-19.78-12.69-26.68-12.39-10.6-27.06-16.38-43.17-17.92-17.64-1.68-33.45,4.2-48.15,13.48a36.83,36.83,0,0,0-16.33,22.09,114.91,114.91,0,0,0-3.33,38.21,1.67,1.67,0,0,0,.31,1.76Zm-23,262.41c.26-7,.4-13.94.51-20.82.11-6.69-4.7-12.76-1.85-19.56.09-.23-.52-.71-.73-1.12-2.11-4.16-.81-12.29,2.48-15.68.8-.83,1.76-1.67,1.79-2.88.08-3.29,0-6.59,0-10.89a130.76,130.76,0,0,1-11.69,18c-9.87,13-17,27.82-27.34,40.44-1.71,2.07.15,2.21,1.29,2.64C175.76,459.1,187.68,462,199.76,464.52Zm116.9-175.27c-20.57,19.49-41.81,20.09-63.19.26a46.11,46.11,0,0,1,0,5.62c-.44,3,1,4.36,3.72,5,4,1,8,2.06,12.06,3.11,1.54.4,3.37.5,2.51,3-.22.65.28,1.55.48,2.32,2.32,9.06,4.87,18.07,6.88,27.19,1.21,5.56,2.53,10.81,7.63,14.21a18.24,18.24,0,0,0,4.64-8.76c2.11-9.82,4.76-19.52,7.18-29.27.75-3,.55-7.06,2.45-8.9s6-1.73,9.14-2.61c8.05-2.29,8-2.33,7.26-10.67C317.38,289.71,317.22,289.65,316.66,289.25ZM200.25,419.91c1.54-2.41,2.73-4.25,3.89-6.1,6-9.54,10-19.65,10.69-31.12a216.41,216.41,0,0,0-.48-31.91,71.07,71.07,0,0,0-6-24.1c-.35-.73-.34-1.88-1.7-1.88,3.52,13.48,5.19,27.15,6.08,41,1,16-1.7,31.07-9,45.33-.52,1-.89,2.47-1.75,2.92C199.53,415.3,199.8,417.21,200.25,419.91ZM340.8,253.3c5.19-4.3,10.12-7.88,11.51-14.2,1.7-7.73.84-15.45-.72-23.1-.2-1-.59-2.41-1.7-2.37-1.44.05-1.37,1.66-1.59,2.74-.93,4.41-1.78,8.84-2.68,13.26C344.07,237.29,342.5,245,340.8,253.3Zm-120-40.24c-8.45,9.88-3.36,33.14,8.08,39.16C226.2,239.29,223.55,226.42,220.79,213.06Zm175,243.41c-10.18-5.76-12.95-15.65-16.93-25.71-1.28,10.66-.6,20.45-.78,30.49ZM250,291c-.69-1.38.82-3.68-1.28-5.35a52.58,52.58,0,0,1-8.72-8.92c-.82-1.05-1.29-1.33-2.56-.25-4.2,3.53-4.62,8.3-.75,12.71,2.17,2.48,5,4,7.92,5.55C250.17,297.69,250.17,297.69,250,291ZM425.87,509c4.42,2.22,8.78,4.5,13.22,6.59,2.2,1,4.62,1.17,6.49-.66,2.82-2.76,4.17-6.38,6.06-10.74C443,508.79,434.09,505.84,425.87,509Zm-51.42-52.71-6.72,7.46C375.72,461.91,375.13,463.21,374.45,456.31Z" transform="translate(-62.1 -122.86)"/><path class="cls-2" d="M370.55,501.42c-2.91,1.23-.8,3.87-1.59,5.69-2.45.31-4.72-1-7.22-.66a265.25,265.25,0,0,0-29.44,5.88c-7.51,1.86-15.11,1.92-22.74,1.67a23.35,23.35,0,0,1-5.36-1.28c-2.7-.75-3.26-3.42-3-5.27.28-2.15,2.43-.27,3.74-.39,2.59-.25,5.3.83,7.78-.66,13.63.32,27.15-.69,40-5.31,6.07-2.18,11.78-2.77,17.84-.83Z" transform="translate(-62.1 -122.86)"/><path class="cls-3" d="M201.89,552.76c.64-2-.34-2.73-2.12-3-2.79-.5-5.57-1.08-8.88-1.73,6.49-4.69,12-10,19.79-11.23,2.2-.36,3.5-.18,4.54,2.22,1.56,3.56,5.08,4.85,8.63,5.75,11.56,2.95,23.34,4.64,35.15,6.1a272.84,272.84,0,0,0,46.77,2.08,203.84,203.84,0,0,0,38.06-5.21c4-1,8.21-.93,12-3,2.21-1.22,4.13-2.62,4.66-5.22s2.1-2.81,4.12-2.24c3.08.88,5.8,2.32,7.33,5.34l.52.75.21.69c-3.18-.27-5,2-7,3.87-3.17,3-6.09,6.24-9.12,9.38a3.71,3.71,0,0,0-3.05,1.28,63.71,63.71,0,0,1-5.24,4.47c-1.27.94-2.88,2.18-3.54-.69,1.1-.58,2.51-1.12,1.8-2.71s-2.06-.75-3.2-.35a11.41,11.41,0,0,1-1.31.33c-1.72-4.31-3.82-5.31-8.42-3.8-11.76,3.85-23.9,5.89-36.09,7.8-6.61,1-13.25,1.62-19.92,2-2.47.15-2.74,1.33-1.54,3.17,1.65,2.53,4.22,2.54,6.83,2.37,1.59,1.25,3.48,1,5.3,1,10.75.38,21.38-.85,32-2.44l.87-.39,2.74-.48c.6,1.12,1.44.68,2.39.55,3.31-.43,6.63-.74,10-1,.95-.06,2.32-.54,2.78.72s-.78,2-1.72,2.66c-6.14,4.3-12,9.08-19.4,11.25a1.74,1.74,0,0,0-1.48,1.68,1.72,1.72,0,0,0,1.45,1.71c1.32.4,2.61,1,4.05.63,3.1-.87,6.26-1.57,9-3.37,4.76,2.82,8.55.27,12.23-2.33a75,75,0,0,0,17.1-16.5c1.85-2.49,5.43-3.87,5.46-7.66l0,0,.73-.69h0l.72-.63,0,0,.67-.61.09,0a1.21,1.21,0,0,0,1.21-1c7.54-7.64,17.17-8.35,27-7.83,8.31.45,16.51,2,25.4,3.54-4.67,1.8-9,2.12-13.24,3-9.14,2-18.33,3.76-27.5,5.61-1.27.25-2.83.32-2.35,2.17.44,1.66,1.84,1.31,3.16,1,16.07-3.22,32.17-6.36,48.23-9.64,11.61-2.37,22.76-.28,33.77,3.22a156.8,156.8,0,0,1,26.17,11c6.59,3.51,12.2,8,14,15.83-2.93.09-5.16,1.94-7.64,3.11-2.85,1.34-5.06,5.7-4.33,8.71,1.34,5.48,2.31,11,3.15,16.59.68,4.53,1.85,9.06-.48,13.56-1,1.92-2,3-4.19,2-.65-2.61-3-4.45-4.94-3.84A47.41,47.41,0,0,0,471.41,629a13.59,13.59,0,0,0-5.73,1.11c-11.59,3.84-23.58,5.35-35.68,5.8a157.39,157.39,0,0,1-28.69-1.29c-14.45-2.11-28.46-5.54-41.79-11.72-10-4.63-19.07-10.93-29.41-14.79-.1-1.49-1.37-1.79-2.39-2.18q-4.68-1.78-9.42-3.35c-1.21-.4-2.56-.45-2.81-2.08,10.47-1.58,21-2.8,31.39-4.92a355.31,355.31,0,0,0,49.92-13.83c1.77-.64,3.43-1.16,2.21-3.57.23-1.82,1.74-3.73-.37-5.39-1.91-1.51-3.62-2.73-6.46-1.61-9.26,3.68-18.64,7-28,10.49-5.53,1.62-11,3.42-16.6,4.82-13.19,3.29-26.7,4.67-40.16,6.43-12.46,1.64-25,2-37.48,3.31-4.2.45-4.22.24-3.18,4.34a13.74,13.74,0,0,1-1.59.57c-1.24.26-2.73.27-2.7,2,0,2,1.76,1.31,2.88,1.52-1.69,2.53-4.72,1.64-7,2.74-1.49.09-3,.11-3.48,2l-1.35.8c-6.52-1.48-13.11-1-19.7-.72-11,.44-21.88-.63-32.81-1.37-2.22-.16-3.47-1-3.23-3.45a18.43,18.43,0,0,0,0-2.78c-.19-3.9-2.29-5.92-6.14-5.58-3,.27-5.89.88-8.84,1.34-.31-1.9-1.73-1.38-3-1.42-6.08-.21-12.27,1-18.2-1.3a19.05,19.05,0,0,0-1.41-1.43c-4.46-3.67-9.48-6.73-12.56-11.85a7.92,7.92,0,0,1,4.69-2c8.86.13,17.73-.62,26.6.4,3.22.36,6.6,1,9.8-.51.74.29,1.51.52,2.23.87a256.77,256.77,0,0,0,50.17,18.26c1.55.39,3.12,1.1,4.51-.37,2-.08,1.68-1.63,1.49-2.74a6.71,6.71,0,0,0-2.72-4.86c-.22-1.64-1.54-1.8-2.79-2.1a178.15,178.15,0,0,1-23.26-7.85c-2.49-1-4.64-2.74-5.1-5.33C211.77,566.66,206.8,559.75,201.89,552.76Zm89.22,34.54c2.38,2.85,6,2.27,9.05,3.19.5.15,1-.48,1.16-1.09.56-2.23-1.8-5.95-4.13-6.36-1.72-.31-3.57-.44-4.71-1.86-1.82-2.28-4.43-2.85-6.94-3.61-7.62-2.29-15.31-4.33-22.88-6.75-16.83-5.38-33.43-11.39-49.75-18.18-2.13-.88-4.45-1.87-3.93,2.17-2.91,2.11-.68,2.92,1,3.81a293,293,0,0,0,29,13.32A317,317,0,0,0,291.11,587.3Z" transform="translate(-62.1 -122.86)"/><path class="cls-4" d="M222.45,200.07a114.91,114.91,0,0,1,3.33-38.21,36.83,36.83,0,0,1,16.33-22.09c14.7-9.28,30.51-15.16,48.15-13.48,16.11,1.54,30.78,7.32,43.17,17.92,8.08,6.9,10.91,16.57,12.69,26.68,3.58,20.27.73,40.1-3.77,59.85q-2.53,11.16-4.66,22.4c-2.6,13.6-10.58,23.63-20.93,32.15-1.33,1.1-2.73,2.11-4.1,3.17-3.49-1.7-6.66-2.09-10.27.38a17,17,0,0,1-9.58,2.5c-6.25,0-11.31-3.15-16.53-5.68-10.51-5.11-19.17-12.61-26.69-21.59a73.76,73.76,0,0,1-15.38-29.92c-2.4-9.62-4.62-19.27-7.76-28.69-.61-1.83-1.15-3.63-3.65-3.35l0-.28A1.71,1.71,0,0,0,222.45,200.07Z" transform="translate(-62.1 -122.86)"/><path class="cls-2" d="M394.64,673.63c-5.1-.49-9.89-2.26-14.62-4a187.48,187.48,0,0,0-51.85-10.29c-24.4-1.53-48.81-2.28-73.24-2.9a140.91,140.91,0,0,0-51,8.37c-13.34,4.7-26.94,8.59-41.31,7.74-15.81-.93-31-4.9-45.95-9.87a32.32,32.32,0,0,1-5.81-2.44c4.21.53,8.41,1.12,12.63,1.57a165.89,165.89,0,0,0,35.71-.49c20.7-2.24,41.16-6.43,62-7.81,4.05-.27,8.11-.16,12.17-.26,1.21,0,2.81.37,2.8-1.62s-1.64-1.73-2.82-1.74a205.16,205.16,0,0,0-26,1.62c-21.12,2.53-42,6.8-63.35,7.81a124,124,0,0,1-35.49-3.32c-1.62-.4-3.21-1.13-3.83,1.31-.33,1.26-1.11.39-1.58.2a173.13,173.13,0,0,1-30.7-16.06,14.7,14.7,0,0,1-6.64-11.71c-.81-17.52-.21-35,3.93-52.15a30.68,30.68,0,0,1,1.43-3.84c1.75,1.61,2.65-.32,3.77-1,4.29-2.55,5.74-2,6.92,2.72.89,3.54,1.77,4,5.07,2S93.06,574,97,573.79c7.13-.45,11.34,2.2,11.55,9.35a16.19,16.19,0,0,0,7.31,13.7,4.09,4.09,0,0,1,1.75,4.88c-2.62,7.7,2.63,11.57,8.36,14.55,2.76,1.44,6,2.12,8.54,3.79a42.39,42.39,0,0,0,14.58,6.06,299.89,299.89,0,0,0,30.73,4.41c6.22.64,12.46-.13,18.65,1.09a17.57,17.57,0,0,0,8.93-.52c2.46-.83,3.07-2.89,1.28-4.64-3-2.94-2.93-4.17.83-5.75a69.72,69.72,0,0,1,20.73-5.11c4.16-.38,8.25.74,12.34-.06,8.53-1.66,13.47.59,16.6,8.3,1.57,3.89,4.27,5.15,8.06,5.13,5.66,0,11.34-.58,17-.52,9.32.09,18.67.41,28,1.1a275.64,275.64,0,0,1,29.1,3.62c5.15.94,7.82,4.57,6.52,9.47-.73,2.74.42,4,2.58,4.8a62.59,62.59,0,0,0,9.95,2.93c1.71.29,3.6,1.5,5.37.4,1.93-1.21,3.73-.75,5.63-.07a13,13,0,0,0,4.66,1.25,53.59,53.59,0,0,0,15.31,1.39c.5,1.75,1.9,2.38,3.48,2.79.73,1,1.82.59,2.78.7a1.26,1.26,0,0,0,1.4,1.38h2.78a1.67,1.67,0,0,0,2.78,0h2.09c1.62-.27,3.41.65,4.87-.69h1.39a10.58,10.58,0,0,0,5.58-1.39h1.39a1.45,1.45,0,0,0,1.39-.7h1.39a1.4,1.4,0,0,0,1.39-.7,19.7,19.7,0,0,0,2-.33c10.15-2.52,20.34-4.95,30.45-7.62,9.23-2.45,18.54-4.78,26.68-10.15a1.28,1.28,0,0,0,1.4-1.39h.69a2,2,0,0,0,2.09-2.09c.67-.13,1.52,0,2-.42,4.3-3.53,7.7-7.66,7.75-13.6.08-8.33-1.88-16.38-3.69-24.42a6.52,6.52,0,0,1,2-6.82c2.52-2.34,5.67-3.43,8.93-4.27,2.54,7.15,3,14.68,3.8,22.11a157.43,157.43,0,0,1,.76,25.32c-.16,2.94.19,6.15-2,8.7-.1.66-1.13,1-.71,1.81l0,0a12.71,12.71,0,0,0-6.31,6.29l.05,0c-.64-.16-.95.19-1.13.73a150.76,150.76,0,0,1-30.34,14.72c-6.65,2.33-13.05,5.46-20,6.69-1.73.31-2.84,2.18-4.76,1.53-3.6-.41-6.83,1-10.11,2.08a47.16,47.16,0,0,1-14.54,2.09c-3.7-1.07-7.43.65-11.13-.15C403.56,674.61,399.21,673.35,394.64,673.63Z" transform="translate(-62.1 -122.86)"/><path class="cls-4" d="M161.69,448c-2.69,4.35-2.67,4.29-7.39,2.76a32.34,32.34,0,0,0-12.94-1.91c-1.1.1-2.19.15-2.09,1.66s1,1.67,2.22,1.55c6.47-.66,12.26,1.67,18,4.14,15.61,6.68,32.11,10.1,48.68,13.25,4.54.87,9.18,1.27,13.67,2.34a10.27,10.27,0,0,0,8.49-1.55,98.24,98.24,0,0,0,10.84-7.46c2.61,1.36,5,3.69,8.17,3.15,6.72-1.15,11.46-5.6,15.95-10.31.12-.12,0-.44,0-.67,5.39-.51,10.78-1.15,16.19-1.49,4.37-.27,5.55.62,6.32,5a54.1,54.1,0,0,1,1.05,12.38c-4,.5-5.2,3-5.53,6.7a84.08,84.08,0,0,1-2,10.85c-.4,1.76-1.54,3.42-3.54,3.16-9.76-1.27-19.53-2.46-29.21-4.32-7-1.34-14.13-2.55-21.23-2.29A170.74,170.74,0,0,0,205,487.77a235.36,235.36,0,0,1-38,3.24c-6.87.06-13.78-.33-20.64-.73s-14-1.34-20.6-4.08c-4.08-1.69-8-3.73-10.8-7.23-2.35-2.92-1.13-6.36-.92-9.66.15-2.44-1.78-2.77-3.6-2.53a54.08,54.08,0,0,0-5.7,1.33c2.83-15.23,10.36-28.47,17.75-41.75,8.8-15.82,20.11-29.92,30.55-44.62a494,494,0,0,0,29-45.21,46.4,46.4,0,0,1,6.36-9.07A21.28,21.28,0,0,1,194,323c6.27-3.29,8.08-2.59,9.85,4.2A162.05,162.05,0,0,1,208,351.73a3.64,3.64,0,0,0-2.06,3.7c.19,3.46-1.17,6.82-.41,10.27a4.13,4.13,0,0,0-3.12,1.95c-1.11,1.75-2.44,3.37-3.48,5.16-4,6.78-10.11,12.14-13,19.61-4.37,11.43-11.66,21.22-17.6,31.77-3.59,6.36-8.34,11.88-13,17.49-.84,1-2,2.21-1.14,3.73s2.33,1.74,3.9,1.83C159.35,447.31,160.73,446.77,161.69,448Z" transform="translate(-62.1 -122.86)"/><path class="cls-5" d="M368.77,388.18c-1.52-5.43-3-10.88-4.57-16.3-.4-1.38,0-3.9-2.42-3.35s-1.07,2.68-.72,4.05q5.67,22.67,13.25,44.76a9.62,9.62,0,0,1,.25,1.34c-2.36-.33-2.62-2.49-3.22-4.09-2.45-6.45-4.68-13-7-19.47a13.59,13.59,0,0,0-1.45-3.11c-1.19-1.73-2.46-2.27-4.57-.78-4.78,3.38-9.84,6.38-14.71,9.64-.88.58-2.4.91-2.19,2.36a2.68,2.68,0,0,0,2.7,2.24c-3.21,5.64-8.24,9.45-13.31,13.2a2.73,2.73,0,0,0-3.9-.85c-2.05,1-4.17,1.93-6.3,2.82-11.78,4.94-23.06,11-34.89,15.86-2.79,1.14-6.34,1.65-7.82,5.05-1.88.65-2.38,1.8-1.25,3.53-1.56.36-3.14.6-4.72.84-3.29.5-6.09,2-7.24,5.48-4.07,1-8.27.86-12.4,1.11-3.47.22-6.18,1.19-8.37,3.84A10.67,10.67,0,0,1,242,457.8c-1.63-.72-2.65-2.46-4.87-2.28a10.65,10.65,0,0,0-7.57,4.33c-.65.78-1,2.22-2.21,1.85-3.19-1-3,1.71-3.64,3.27a17.79,17.79,0,0,0-.79,3.69c-5.23-.88-10.44-1.91-15.7-2.57-3.08-.39-4.54-1.52-4-4.78a47.63,47.63,0,0,0,.32-5.3c1.42,1.15,2.52,2.12,3.7,3,.87.65,1.88,1.13,2.73,0s.19-1.89-.7-2.64a16.2,16.2,0,0,1-5.82-15.28c.27-2.1.68-4.18,3.42-4.39a27.17,27.17,0,0,0,.77,7.89c1.83,7.68,5.69,13.59,13.92,15.55,3.08.73,3.92.09,3.37-3.07-.66-3.85-2.13-7.51-3.18-11.24-1.62-5.74-4-10-10.11-11.39,17.73-8.75,35.26-17.88,52.13-28.24,36.49-22.41,70.17-48.38,100.3-78.87a5.48,5.48,0,0,1,.83-.6c2.15,3.14.94,5.5-1.66,7.67-2.39,2-4.72,4.07-6.93,6.27-1.57,1.56-2,3.33.74,4.16,5.63,1.71,11.27,3.39,17,4.88a15.42,15.42,0,0,1,7.35,4.3c7.43,7.66,6.43,17.22-2.24,23.19C374.92,380.07,369.78,382.24,368.77,388.18Z" transform="translate(-62.1 -122.86)"/><path class="cls-3" d="M368.77,388.18c1-5.94,6.15-8.11,10.34-11,8.67-6,9.67-15.53,2.24-23.19a15.42,15.42,0,0,0-7.35-4.3c-5.69-1.49-11.33-3.17-17-4.88-2.76-.83-2.31-2.6-.74-4.16,2.21-2.2,4.54-4.27,6.93-6.27,2.6-2.17,3.81-4.53,1.66-7.67,3.44-4.13,7.63-5.69,12.91-4,11.11,3.47,25.75,23.1,25.94,34.88-5.33-3-5.33-3-6.05-.17-4.08,4.54-2.63,9.9,3.41,12.55a2.6,2.6,0,0,0,1.36,2.29c2.54,1.5,4.35,3.79,6.39,5.83,9.08,9.06,18.27,18,26.88,27.54,1,1.09,1.95,2.49,3.73,1.2,5.06,8.29,12.3,14.68,18.77,21.75,9.38,10.25,17.06,21.56,21.11,35a24,24,0,0,1,.46,2.36l.49,1.45.07.72c-3,.17-4.39,2.21-4.68,4.73-1.15,9.65-4.35,18.42-10.89,25.7-3.19,3.55-6.13,7.55-11,9.21.42-2.78,2-5.09,3-7.65,6.09-15.76,4.42-30.06-7.7-42.49l.81-.71c4.45,3,7.67,7.28,11,11.4,1.12,1.39,2.11,3,4.12,1.18a11.38,11.38,0,0,1,1.3.37c.89.37,1.45,2,2.5,1.26s.11-2.13-.22-3.18c-1.39-4.29-5.09-6.76-8.21-9.49-2.46-2.15-4.86-5-8.75-4.87a.54.54,0,0,1-.5-.28l-.6-.52a56.23,56.23,0,0,0-17.54-8.18c7.66.07,14.3.6,20.49,3.53a25.4,25.4,0,0,1,10.34,8.49c.71,1,1.2,3.39,3.24,1.88,1.84-1.37,0-2.62-.59-3.86-.2-.42-.45-.8-.68-1.2.31-1,2-1.7.72-3-3.41-3.3-5.93-7.73-11.1-8.82-3.06-3-7-4-11.05-4.16a71,71,0,0,0-31,6c-3.11,1.32-5.5,4.26-9.1,4.83-1.8-.83-2.51-2.66-3.72-4-9.72-10.88-18.09-22.64-23.7-36.24-.73-1.79-1.05-4.16-3.54-4.77,0-.45.07-.9.11-1.36,1-3.29-1.51-5.73-2.17-8.62-.32-1.38-.18-3.28-2.13-3.87Z" transform="translate(-62.1 -122.86)"/><path class="cls-5" d="M376.05,652a13,13,0,0,1-4.66-1.25c-1.9-.68-3.7-1.14-5.63.07-1.77,1.1-3.66-.11-5.37-.4a62.59,62.59,0,0,1-9.95-2.93c-2.16-.76-3.31-2.06-2.58-4.8,1.3-4.9-1.37-8.53-6.52-9.47a275.64,275.64,0,0,0-29.1-3.62c-9.33-.69-18.68-1-28-1.1-5.62-.06-11.3.5-17,.52-3.79,0-6.49-1.24-8.06-5.13-3.13-7.71-8.07-10-16.6-8.3-4.09.8-8.18-.32-12.34.06a69.72,69.72,0,0,0-20.73,5.11c-3.76,1.58-3.84,2.81-.83,5.75,1.79,1.75,1.18,3.81-1.28,4.64a17.57,17.57,0,0,1-8.93.52c-6.19-1.22-12.43-.45-18.65-1.09a299.89,299.89,0,0,1-30.73-4.41,42.39,42.39,0,0,1-14.58-6.06c-2.58-1.67-5.78-2.35-8.54-3.79-5.73-3-11-6.85-8.36-14.55a4.09,4.09,0,0,0-1.75-4.88,16.19,16.19,0,0,1-7.31-13.7c-.21-7.15-4.42-9.8-11.55-9.35-4,.25-7,1.93-10.22,3.78s-4.18,1.51-5.07-2c-1.18-4.73-2.63-5.27-6.92-2.72-1.12.66-2,2.59-3.77,1,2.56-9.92,14.18-17.81,24.45-16.56a4.12,4.12,0,0,0,3.72,3.52l20.09,2.7a.72.72,0,0,1,.57.23l.74.5c7.94,4.29,13.63,10.93,18.8,18.1a11,11,0,0,0-4.62,1.29c-1.87.86-3.87,1.57-3.82,4.3,0,2.55,1.75,3.58,3.61,4.59a84.67,84.67,0,0,0,13.69,5.74c4.28,1.42,4.33,1.39,5.07-2.7l4.17,1.93a2.7,2.7,0,0,0,1.41,2.6c10.59,7.45,22.13,9.79,34.73,6.54a2.58,2.58,0,0,0,2-3.41c-.58-2.76-2.48-3.78-5.13-3.38-2,.31-4,.94-6.08,1.18-1.29.14-3.21,1-3.35-1.57a2.38,2.38,0,0,0,1.7-1.78c3-.46,5.88-1.07,8.84-1.34,3.85-.34,5.95,1.68,6.14,5.58a18.43,18.43,0,0,1,0,2.78c-.24,2.42,1,3.29,3.23,3.45,10.93.74,21.84,1.81,32.81,1.37,6.59-.27,13.18-.76,19.7.72-.12,2.4,1.14,3,3.21,2.38a8.1,8.1,0,0,1,3-.23c1.33,3.6,4.45,3,7,2.51,12.63-2.61,25.28-4.92,38.21-5.37,1,0,1.87-.1,2.27-1.18,4.64.2,9,1.7,13.21,3.37a110.73,110.73,0,0,1,25.66,14.45,5.54,5.54,0,0,0,.35,2,27.19,27.19,0,0,0,14.67,12C367.53,642.29,371.83,647.07,376.05,652Z" transform="translate(-62.1 -122.86)"/><path class="cls-4" d="M296.76,473.69a57.35,57.35,0,0,1,1.39-16.21c.57-2.78,2.26-4.19,5.19-4q11.07.92,22.15,1.78a5.58,5.58,0,0,1,3.63,1.67,110.32,110.32,0,0,0,19,14,4,4,0,0,0,3.25.71c15.69-4.2,31.4-8.3,47.06-12.6,6.91-1.9,13.65-4.44,20.58-6.26,15.36-4,33,6.83,37.08,22.63a35.32,35.32,0,0,1-.91,19.85c-6.54.47-13.08,1.21-19.64,1.33a267,267,0,0,1-35.64-1.26c-11.43-1.31-22.85-2.56-34-5.44-3.27-.83-6.55-1.22-9.83.09-13.9,5.53-28.7,6.27-43.3,8.08-2.48.31-4.12-.78-5.69-2.54-4.87-5.48-7.66-11.74-7.56-19.15C299.51,474.47,298.67,473.58,296.76,473.69Z" transform="translate(-62.1 -122.86)"/><path class="cls-3" d="M264.67,451.4c1.15-3.49,3.95-5,7.24-5.48,1.58-.24,3.16-.48,4.72-.84a10.71,10.71,0,0,0,2.05-.18,285.89,285.89,0,0,0,30.41-10.25c13.69-5.71,26.15-13.21,36.08-24.47,2.49-2.83,2.39-3.28-1.07-4.71a2.68,2.68,0,0,1-2.7-2.24c-.21-1.45,1.31-1.78,2.19-2.36,4.87-3.26,9.93-6.26,14.71-9.64,2.11-1.49,3.38-1,4.57.78a13.59,13.59,0,0,1,1.45,3.11c2.34,6.49,4.57,13,7,19.47.6,1.6.86,3.76,3.22,4.09a.6.6,0,0,1,.13.56l.46.8a10.63,10.63,0,0,1,.79,6.23c-.68,7.43-.95,14.89-1.39,22.34-2.47-.46-4.24.72-5.58,2.59-4.23,5.87-10,10-15.82,14.06a2.64,2.64,0,0,0-1.48,2.14c-1.44,1.19-2.56.17-3.74-.52a88.47,88.47,0,0,1-17.4-13.14,4.85,4.85,0,0,0-3.24-1.63c-7.37-.58-14.73-1.52-22.11-1.78-6.72-.23-9.19.89-10.46,7.82-2.42,13.22-1.62,26.49-.05,39.74.45,3.75,2.87,6,6.51,6.74,3.81.75,7.68,1.2,11.52,1.77-2.48,1.49-5.19.41-7.78.66-1.31.12-3.46-1.76-3.74.39-.24,1.85.32,4.52,3,5.27a23.35,23.35,0,0,0,5.36,1.28c7.63.25,15.23.19,22.74-1.67a265.25,265.25,0,0,1,29.44-5.88c2.5-.33,4.77,1,7.22.66a18.05,18.05,0,0,1-1.92,9.75c-2.17,4.39-5.3,5.48-10.15,5-2.8-.25-5.74,1-8.61,1.64q-4.06.87-8.1,1.82a9.44,9.44,0,0,1-6.72-.9c-5-2.75-10.21-2.73-15.47-1.11-4.62,1.42-9.05,1.55-13.4-.93a10.54,10.54,0,0,0-10-.15c-5.86,2.72-11.46,2.83-17.2-.49-4.09-2.35-8.52-1.68-12.78-.15-6.21,2.23-12.22,2-18-1.28.08-2.68-1.2-3.63-3.86-3.54-4.86.16-9.74.25-14.6,0-5.18-.28-10.38-.91-14.66-4.37-1-.82-2.79-2-.82-3.15,2.84-1.65,5.61-3.52,9.23-3.64,6.83-.22,12.85,2.6,19.07,4.63,7.64,2.49,15.32,4.16,23.42,3.84a150.38,150.38,0,0,0,22.58-2.85c2.52-.48,2.45-1.9,1.39-3.81-1.26-2.28-3.81-1.22-5.52-2.27,6.69-2,7.69-3.37,8.39-10.47,1.19-11.89,1.75-23.74,0-35.64-1.06-7.08-3.92-9.38-10.95-8.64C275.05,451,269.85,451.09,264.67,451.4Z" transform="translate(-62.1 -122.86)"/><path class="cls-6" d="M104.68,468.11a54.08,54.08,0,0,1,5.7-1.33c1.82-.24,3.75.09,3.6,2.53-.21,3.3-1.43,6.74.92,9.66,2.82,3.5,6.72,5.54,10.8,7.23,6.6,2.74,13.61,3.67,20.6,4.08s13.77.79,20.64.73a235.36,235.36,0,0,0,38-3.24A170.74,170.74,0,0,1,227.41,485c7.1-.26,14.22.95,21.23,2.29,9.68,1.86,19.45,3.05,29.21,4.32,2,.26,3.14-1.4,3.54-3.16a84.08,84.08,0,0,0,2-10.85c.33-3.7,1.58-6.2,5.53-6.7.69,8.36-.49,16.66-.83,25-.15,3.92-2.59,5.72-6.23,6.16-17.73,2.18-35.34,2.3-52.4-4a17.4,17.4,0,0,0-10.07-.8,274.77,274.77,0,0,1-42,5.3c-19.84,1.08-39.48,0-58.9-4.38-10-2.26-13.95-6.77-14.55-16.9C103.64,476.86,103.53,472.44,104.68,468.11Z" transform="translate(-62.1 -122.86)"/><path class="cls-5" d="M201.89,552.76c4.91,7,9.88,13.9,11.44,22.63.46,2.59,2.61,4.35,5.1,5.33a178.15,178.15,0,0,0,23.26,7.85c1.25.3,2.57.46,2.79,2.1-18-4.2-34.49-12.21-51-20.12-2.58-1.23-4.93-2.91-7.43-4.3-.65-.36-1.47-.83-2.23,0s-.32,1.43-.26,2.24c.23,2.78,2.87,4,3.82,6.32L184,573.26c-.93-.41-1.94-1.13-2.62.27-.58,1.2.09,1.93,1.13,2.49,2.12,1.15,4.23,2.33,6.34,3.49-3.2,1.46-6.58.87-9.8.51-8.87-1-17.74-.27-26.6-.4a7.92,7.92,0,0,0-4.69,2,21.76,21.76,0,0,1-2.8-2.52A73.69,73.69,0,0,0,133,567.27c-1.9-1.51-3.38-3.85-6.29-3.62v0c.1-1.77-1.12-1.53-2.23-1.47l-1.83-1-.67-.49h0c-.14-1.54-1.24-1.39-2.3-1.31-5-2-9.9-4.24-15.19-5.42a49,49,0,0,1,29.33,9.22c1.89,1.31,3.61,2.88,5.38,4.36.87.74,1.81,1.32,2.68.25s.32-2-.55-2.73c-1.9-1.66-3.83-3.29-5.75-4.93,1.49-.36,2.69.39,4,1,1.89.89,3.8,1.71,5.7,2.54.65.28,1.3.56,1.92-.08a1.88,1.88,0,0,0,.2-2.24,4.47,4.47,0,0,0-2.72-2.51c-2-.86-4-1.77-6-2.69-8.94-4.15-18.25-6.51-28.2-5.75h-6.15a81.57,81.57,0,0,1,20-7.13c12-2.88,23.6-.67,35.28,1.76,13,2.7,26,5.28,39,7.9A5.39,5.39,0,0,0,201.89,552.76Z" transform="translate(-62.1 -122.86)"/><path class="cls-5" d="M215.29,320.49a5.6,5.6,0,0,0-1.38-4.19c-1.86-2.17-1.53-3.23,1.34-3.64,1.71-.24,3.35-.89,5.06-1.14,2.39-.35,5.1-1.25,7.16-.5s1.22,4,2,6.08a23.14,23.14,0,0,0,6.29,9,95,95,0,0,0,37.19,21.48,16,16,0,0,1,1.54.68,6.5,6.5,0,0,1-6.43.47c-4.73-1.91-9.32-4.09-13.88-6.36-1.11-.55-2.37-1.64-3.52-.66s0,2.43.39,3.48a137.37,137.37,0,0,1,7.19,24.92c.41,2.27-.84,5,1.6,6.79-.18,3-3.81,4.36-3.5,7.57a280.46,280.46,0,0,1-20.82,20.27,10.31,10.31,0,0,0-7.29,3.28A74.54,74.54,0,0,1,221,414c-.52.41-1,1.21-1.72.84-.93-.44-.68-1.47-.54-2.17.86-4,1.82-8,2.75-12.05,1.27,0,1.33-1.06,1.66-1.89,5.93-14.7,6.52-29.85,4.38-45.38-1.32-9.52-5.07-18.16-8.46-26.95C218.28,324.24,217.86,321.58,215.29,320.49Z" transform="translate(-62.1 -122.86)"/><path class="cls-7" d="M327.33,540.6l2-.18c1,1.24,2.32.69,3.52.8,5.17.5,10.26-1.12,15.42-.66,3.18.29,4.56-.89,4.1-4.09.76-.25,1.53-.45,2.26-.76a1.37,1.37,0,0,0,.89-1.64,1.47,1.47,0,0,0-1.76-1.22c-1.79.24-3.57.53-5.36.8-.82-.07-1.67-.24-2.29.53l-1.34.2c-3.33-1.94-6.7-.19-10.06-.13-11.88.17-23.74,1.1-35.6,1.25-13.87.18-27.72.92-41.59.86-1.62,0-3.24,0-4.86.06a87.74,87.74,0,0,1-31.93-5.7,4.81,4.81,0,0,1-2.7-6.12c.44-1.11,1.3-.81,2-.68,5.85,1,11.51-.29,17.2-1.27a17,17,0,0,1,9.82,1.54,22.07,22.07,0,0,0,17.51.56,16.53,16.53,0,0,1,14.12.92,16.26,16.26,0,0,0,15.33.23c2.78-1.31,5.75-2.18,8.68-.61,5.52,3,11.14,2.52,16.86.93,3.8-1.05,7.53-1.18,11.13.75,4.72,2.52,9.57,2.19,14.5.74,2.88-.85,5.76-1.82,8.81-1.77.94,0,2.4-.39,2.44,1.17,0,1.39-1.36,1-2.16,1.06-9.31,1.1-18.67,1.58-28,2.11-19.83,1.12-39.61.37-59.39-.95-5.2-.35-10.38-1-15.56-1.47-1-.1-2.28-.5-2.56,1s.86,1.94,2.12,2.07c5.87.61,11.73,1.4,17.61,1.81a472.66,472.66,0,0,0,76.37-.38c3.23-.3,6.46-.53,9.69-.86,1.84-.19,2.69.28,2.75,2.39.16,5.74-.6,7-6.27,8.6-19.65,5.57-39.71,7.65-60.1,7.34-21.14-.32-42-3.3-62.66-7.19a28.7,28.7,0,0,1-6.57-2.14c-3-1.37-4.64-3.72-4.23-7.58a84.43,84.43,0,0,0,20,5.67c.83,3.38,2.78,4.89,6.45,4.83,11.22-.18,22.44.11,33.65-.16,4-.09,8.2-.05,12.15-1.36l17.12,0c1.94-.07,3.94.67,5.8-.47l8.81-.23C323.41,540.64,325.65,543.63,327.33,540.6Z" transform="translate(-62.1 -122.86)"/><path class="cls-3" d="M280,363.65c3.77-4.68,7.59-9.32,11.25-14.08,1.07-1.39,2.49-1.54,3.89-1.9a94.4,94.4,0,0,0,41.39-22.88,20.5,20.5,0,0,0,5.17-6.88c.48-1.14.78-1.78,2.16-1a65.07,65.07,0,0,0,17.55,7.41c-.78,2.64-3.41,3.18-4.58,5-2.48-5.62-6-6.21-10.44-1.91-3.81,3.66-7.57,7.4-11.36,11.07-2.78,2.7-6.13,5.22-7.7,9.07a2.38,2.38,0,0,1-1.39,1.39c-1,0-2,0-2.09,1.4-3.19,2.62-6.37,5.26-9.58,7.86-13.59,11-26.63,22.76-41.65,31.91-4.34,2.65-8.54,5.51-12.81,8.28-1.32-.44-2.9,1.51-3.81.1s.74-2.71,1.28-4.05c1.22-3,4.24-4.79,5.32-7.88,5.07-3.93,8.72-9.11,12.27-14.31,1.24-1.81,3.29-3.36,3-6l0,0c1.47.11,1.52-.91,1.56-1.94l0-.05Z" transform="translate(-62.1 -122.86)"/><path class="cls-6" d="M222.8,202.11c2.5-.28,3,1.52,3.65,3.35,3.14,9.42,5.36,19.07,7.76,28.69a73.76,73.76,0,0,0,15.38,29.92c7.52,9,16.18,16.48,26.69,21.59,5.22,2.53,10.28,5.71,16.53,5.68a17,17,0,0,0,9.58-2.5c3.61-2.47,6.78-2.08,10.27-.38-6.63,5.64-13.52,10.78-22.51,12-6.92,1-13.72.54-19.83-3-13.24-7.67-25-17-33.09-30.4-4.57-7.6-5.47-16.36-7.24-24.78-2.41-11.41-5.09-22.77-6.68-34.34C223,206,223,204.06,222.8,202.11Z" transform="translate(-62.1 -122.86)"/><path class="cls-6" d="M296.76,473.69c1.91-.11,2.75.78,2.72,2.69-.1,7.41,2.69,13.67,7.56,19.15,1.57,1.76,3.21,2.85,5.69,2.54,14.6-1.81,29.4-2.55,43.3-8.08,3.28-1.31,6.56-.92,9.83-.09,11.17,2.88,22.59,4.13,34,5.44a267,267,0,0,0,35.64,1.26c6.56-.12,13.1-.86,19.64-1.33-.31,4.61-3.48,6-7.38,6.94-12,3-24,2.55-36.13,1.09-15.58-1.89-31.1-4.25-46.46-7.47a16.89,16.89,0,0,0-9.88,1.06c-16.64,6.14-33.8,7.33-51.28,5.21-4.47-.54-6.28-2-6.46-5.86C297.21,488.73,296.13,481.24,296.76,473.69Z" transform="translate(-62.1 -122.86)"/><path class="cls-8" d="M316.66,289.25c.56.4.72.46.72.53.78,8.34.79,8.38-7.26,10.67-3.1.88-7.13.66-9.14,2.61s-1.7,5.85-2.45,8.9c-2.42,9.75-5.07,19.45-7.18,29.27a18.24,18.24,0,0,1-4.64,8.76c-5.1-3.4-6.42-8.65-7.63-14.21-2-9.12-4.56-18.13-6.88-27.19-.2-.77-.7-1.67-.48-2.32.86-2.53-1-2.63-2.51-3-4-1.05-8-2.13-12.06-3.11-2.7-.64-4.16-2-3.72-5a46.11,46.11,0,0,0,0-5.62C274.85,309.34,296.09,308.74,316.66,289.25Z" transform="translate(-62.1 -122.86)"/><path class="cls-9" d="M259.79,398.48c4.27-2.77,8.47-5.63,12.81-8.28,15-9.15,28.06-20.88,41.65-31.91,3.21-2.6,6.39-5.24,9.58-7.86a2.08,2.08,0,0,0,2.09-1.4,2.38,2.38,0,0,0,1.39-1.39,5.57,5.57,0,0,0,1.57-.6c4.76-3.77,9.64-7.4,14.16-11.44,2.94-2.61,5.7-4,9.39-1.87-9.66,10.21-20.5,19.13-31.37,28a538.43,538.43,0,0,1-106.29,67.4c-.42.2-.86.35-1.29.52l-.53-.72q16.49-13.71,32.24-28.26c.21,1.62-.92,2.49-1.84,3.54-2,2.24-3.85,4.57-5.77,6.86l.59.64c3.11-1.65,6.33-3.14,9.32-5C251.69,404.1,256.1,401.82,259.79,398.48Z" transform="translate(-62.1 -122.86)"/><path class="cls-3" d="M300.16,342.65a17.46,17.46,0,0,1-6.14,1.59c2.59-12.68,5.77-24.9,9.2-37.05a2.63,2.63,0,0,1,2.24-2.17,114.47,114.47,0,0,0,25.28-9.1c.05,8,.74,16.09-2,23.87a9.67,9.67,0,0,1-3.11,4.11c-7.24,5.77-15,10.86-23.57,14.31C299.33,339.29,298.54,340.21,300.16,342.65Z" transform="translate(-62.1 -122.86)"/><path class="cls-3" d="M239.71,296.06a103.59,103.59,0,0,0,26.53,9.83,2.55,2.55,0,0,1,2.26,1.83c2.92,10.69,6.13,21.3,8,32.25-1.57-.4-2.7-2.49-4.3-2-4,1.34-6.84-.63-10-2.36-14.24-7.72-22.08-19.89-25.06-35.51C236.71,298,237.42,296.52,239.71,296.06Z" transform="translate(-62.1 -122.86)"/><path class="cls-6" d="M161.69,448c-1-1.25-2.34-.71-3.55-.78-1.57-.09-3.07-.38-3.9-1.83s.3-2.7,1.14-3.73c4.62-5.61,9.37-11.13,13-17.49,5.94-10.55,13.23-20.34,17.6-31.77,2.86-7.47,9-12.83,13-19.61,1-1.79,2.37-3.41,3.48-5.16a4.13,4.13,0,0,1,3.12-1.95l.71,0c-.25,3.92,0,7.67,3.34,10.46a63.94,63.94,0,0,1-3.47,21.35c0-5.73,0-11.64,0-17.56q0-2.43.12-4.86c.05-1.1-.38-1.83-1.5-1.92a1.52,1.52,0,0,0-1.72,1.71c.26,14.24-7.92,24.74-15.81,35.29-8.59,11.47-15.07,24.33-23.7,35.76C162.94,446.69,162.29,447.34,161.69,448Z" transform="translate(-62.1 -122.86)"/><path class="cls-2" d="M453.82,507.75c4.84-1.66,7.78-5.66,11-9.21,6.54-7.28,9.74-16.05,10.89-25.7.29-2.52,1.7-4.56,4.68-4.73,4.25,17.94-.35,37.49-19.31,50.7a84.45,84.45,0,0,1-7.36,4.58c-5.48,3-11.09,2.87-16.53,0-5.63-3-10.33-7.31-15.21-11.64,1.66-.82,2.57.33,3.6.83,3.82,1.9,7.53,4.06,11.42,5.8,6.41,2.86,10.44,1.37,13.8-4.8C451.81,511.62,452.8,509.67,453.82,507.75Z" transform="translate(-62.1 -122.86)"/><path class="cls-2" d="M282.8,505.18c1.71,1.05,4.26,0,5.52,2.27,1.06,1.91,1.13,3.33-1.39,3.81a150.38,150.38,0,0,1-22.58,2.85c-8.1.32-15.78-1.35-23.42-3.84-6.22-2-12.24-4.85-19.07-4.63-3.62.12-6.39,2-9.23,3.64-2,1.15-.19,2.33.82,3.15,4.28,3.46,9.48,4.09,14.66,4.37,4.86.26,9.74.17,14.6,0,2.66-.09,3.94.86,3.86,3.54a25.73,25.73,0,0,0-14.32-.1c-9.67,2.44-18.13.43-24.55-7.71a17.53,17.53,0,0,1-2.2-3.51c-2-4.34-1.2-5.8,3.42-6.61q6.48-1.14,13-2.23a8.92,8.92,0,0,1,4.75.4c15.5,5.74,31.54,6.9,47.87,5.35Z" transform="translate(-62.1 -122.86)"/><path class="cls-9" d="M221.51,400.57c-.93,4-1.89,8-2.75,12.05-.14.7-.39,1.73.54,2.17.77.37,1.2-.43,1.72-.84a74.54,74.54,0,0,0,7.17-5.91,10.31,10.31,0,0,1,7.29-3.28,361.53,361.53,0,0,1-28.72,24.59c-.73.57-1.43,1.19-2.18,1.72-.91.65-1.54,2.41-2.61,1.89-1.3-.62-1-2.49-.92-3.77a19.23,19.23,0,0,1,3.39-9.65c6.49-10,12.06-20.31,13.27-32.4.9-9,.44-18.06.44-27.1a118.92,118.92,0,0,0-1.32-15.88c.3.14.77.2.89.44,6.14,12.58,7.78,25.86,6.07,39.64C223.11,389.69,222.28,395.13,221.51,400.57Z" transform="translate(-62.1 -122.86)"/><path class="cls-3" d="M259.8,376.92c-2.44-1.8-1.19-4.52-1.6-6.79A137.37,137.37,0,0,0,251,345.21c-.41-1-1.64-2.42-.39-3.48s2.41.11,3.52.66c4.56,2.27,9.15,4.45,13.88,6.36a6.5,6.5,0,0,0,6.43-.47,4,4,0,0,1,2.74.76,2.12,2.12,0,0,0,1.4,2.09A6.7,6.7,0,0,1,277,354.5c-3.63,5-7.16,10.06-10.89,15C264.16,372.06,262.8,375.2,259.8,376.92Z" transform="translate(-62.1 -122.86)"/><path class="cls-2" d="M221.51,400.57c.77-5.44,1.6-10.88,2.28-16.33,1.71-13.78.07-27.06-6.07-39.64-.12-.24-.59-.3-.89-.44-1.57-9.28-4.31-18.13-9.37-26.16-.4-.62-2-1.41-.16-2.43a1.69,1.69,0,0,1,2.57.68,29.69,29.69,0,0,1,2.15,3.53c.84,1.68,1.89,1.85,3.27.71,2.57,1.09,3,3.75,3.8,5.86,3.39,8.79,7.14,17.43,8.46,26.95,2.14,15.53,1.55,30.68-4.38,45.38C222.84,399.51,222.78,400.56,221.51,400.57Z" transform="translate(-62.1 -122.86)"/><path class="cls-9" d="M239.71,296.06c-2.29.46-3,2-2.59,4.09,3,15.62,10.82,27.79,25.06,35.51,3.18,1.73,6.06,3.7,10,2.36,1.6-.54,2.73,1.55,4.3,2,.93,1.64.94,3.47,1.45,5.62-16.55-4.56-30.77-12.26-42.39-24.45a13,13,0,0,1-3.64-9.14c0-7.6,0-15.21,0-23.78A31.86,31.86,0,0,0,239.71,296.06Z" transform="translate(-62.1 -122.86)"/><path class="cls-2" d="M373.37,403.27c2.49.61,2.81,3,3.54,4.77,5.61,13.6,14,25.36,23.7,36.24,1.21,1.36,1.92,3.19,3.72,4l-3.81,2.39c-3.9,2.41-4.9,2.32-8.28-.85a20.83,20.83,0,0,1-4.87-7.13A345.29,345.29,0,0,1,373.37,403.27Z" transform="translate(-62.1 -122.86)"/><path class="cls-3" d="M211.63,434.42c6.13,1.37,8.49,5.65,10.11,11.39,1,3.73,2.52,7.39,3.18,11.24.55,3.16-.29,3.8-3.37,3.07-8.23-2-12.09-7.87-13.92-15.55a27.17,27.17,0,0,1-.77-7.89,5.54,5.54,0,0,1,2.79-1.3l.69-.45Z" transform="translate(-62.1 -122.86)"/><path class="cls-9" d="M200.25,419.91c-.45-2.7-.72-4.61,1.72-5.88.86-.45,1.23-1.89,1.75-2.92,7.27-14.26,10-29.35,9-45.33-.89-13.83-2.56-27.5-6.08-41,1.36,0,1.35,1.15,1.7,1.88a71.07,71.07,0,0,1,6,24.1,216.41,216.41,0,0,1,.48,31.91c-.68,11.47-4.72,21.58-10.69,31.12C203,415.66,201.79,417.5,200.25,419.91Z" transform="translate(-62.1 -122.86)"/><path class="cls-6" d="M340.8,253.3c1.7-8.35,3.27-16,4.82-23.67.9-4.42,1.75-8.85,2.68-13.26.22-1.08.15-2.69,1.59-2.74,1.11,0,1.5,1.41,1.7,2.37,1.56,7.65,2.42,15.37.72,23.1C350.92,245.42,346,249,340.8,253.3Z" transform="translate(-62.1 -122.86)"/><path class="cls-9" d="M181.15,599.4c.14,2.59,2.06,1.71,3.35,1.57,2-.24,4-.87,6.08-1.18,2.65-.4,4.55.62,5.13,3.38a2.58,2.58,0,0,1-2,3.41c-12.6,3.25-24.14.91-34.73-6.54a2.7,2.7,0,0,1-1.41-2.6C165.26,599.78,173.17,600,181.15,599.4Z" transform="translate(-62.1 -122.86)"/><path class="cls-2" d="M344.72,562.3c.66,2.87,2.27,1.63,3.54.69a63.71,63.71,0,0,0,5.24-4.47,3.71,3.71,0,0,1,3.05-1.28c-.7,2.8-3.36,4-5,6-1,1.31-2.87,2.11-2.7,4.19a64.81,64.81,0,0,1-19.06,12.31c-1.32.55-3.79.52-3.09,2.86.78,2.59,2.72,0,4.06.46,0,.21,0,.42,0,.62-2.75,1.8-5.91,2.5-9,3.37-1.44.4-2.73-.23-4.05-.63a1.72,1.72,0,0,1-1.45-1.71,1.74,1.74,0,0,1,1.48-1.68c7.38-2.17,13.26-6.95,19.4-11.25.94-.65,2.21-1.28,1.72-2.66s-1.83-.78-2.78-.72c-3.33.23-6.65.54-10,1-.95.13-1.79.57-2.39-.55C330.83,566.92,337.87,564.91,344.72,562.3Z" transform="translate(-62.1 -122.86)"/><path class="cls-6" d="M220.79,213.06c2.76,13.36,5.41,26.23,8.08,39.16C217.43,246.2,212.34,222.94,220.79,213.06Z" transform="translate(-62.1 -122.86)"/><path class="cls-9" d="M300.16,342.65c-1.62-2.44-.83-3.36,1.87-4.44,8.61-3.45,16.33-8.54,23.57-14.31a9.67,9.67,0,0,0,3.11-4.11c2.16-.39,3-2.24,4.33-3.68,1.85-2.06,3.18-5,6.73-4.67.07,4.25-2,7.49-4.92,10.31A87.56,87.56,0,0,1,300.16,342.65Z" transform="translate(-62.1 -122.86)"/><path class="cls-10" d="M252.67,536.42c1.62,0,3.24-.06,4.86-.06,13.87.06,27.72-.68,41.59-.86,11.86-.15,23.72-1.08,35.6-1.25,3.36-.06,6.73-1.81,10.06.13-7.6,2.08-15.45,2.65-23.24,3.27-22.31,1.78-44.61.35-66.9-.77A10.61,10.61,0,0,1,252.67,536.42Z" transform="translate(-62.1 -122.86)"/><path class="cls-9" d="M439.46,406.79c-1.78,1.29-2.75-.11-3.73-1.2-8.61-9.53-17.8-18.48-26.88-27.54-2-2-3.85-4.33-6.39-5.83a2.6,2.6,0,0,1-1.36-2.29,19.42,19.42,0,0,1,.38-4.06c.26-.87-.18-2.48,1.14-2.53a3.22,3.22,0,0,1,2.44,1.61c1.34,2.93,4.21,4.51,5.83,7.14-1.53,1.74-.35,2.82.87,4,8.37,8.26,16.63,16.62,24.22,25.61C437.31,403.29,438.93,404.68,439.46,406.79Z" transform="translate(-62.1 -122.86)"/><path class="cls-2" d="M339.77,311.44c-3.55-.34-4.88,2.61-6.73,4.67-1.3,1.44-2.17,3.29-4.33,3.68,2.77-7.78,2.08-15.85,2-23.87,3.14-2.29,6.49-4.33,9-8.67C340,296,340.3,303.69,339.77,311.44Z" transform="translate(-62.1 -122.86)"/><path class="cls-11" d="M250,291c.15,6.68.15,6.68-5.39,3.74-2.87-1.53-5.75-3.07-7.92-5.55-3.87-4.41-3.45-9.18.75-12.71,1.27-1.08,1.74-.8,2.56.25a52.58,52.58,0,0,0,8.72,8.92C250.84,287.33,249.33,289.63,250,291Z" transform="translate(-62.1 -122.86)"/><path class="cls-11" d="M330.18,292c-2.34,1.24-4.67,2.49-7,3.71-1.29.67-2,.61-2.29-1.17-.78-4.6-1.2-8.83,3.49-12,2.06-1.37,3.58-3.6,5.22-5.55,2.73-3.24,4.32-3.23,6.79.34a15.55,15.55,0,0,1,1.21,2.83c-1.43,3.34-2.22,7.08-6.68,8.11A2.18,2.18,0,0,0,330.18,292Z" transform="translate(-62.1 -122.86)"/><path class="cls-3" d="M153.36,595.51c-.74,4.09-.79,4.12-5.07,2.7a84.67,84.67,0,0,1-13.69-5.74c-1.86-1-3.57-2-3.61-4.59-.05-2.73,1.95-3.44,3.82-4.3a11,11,0,0,1,4.62-1.29C143.71,587.09,147.92,591.94,153.36,595.51Z" transform="translate(-62.1 -122.86)"/><path class="cls-3" d="M408.78,365.67c5.3,1.46,10.4,3.55,15.87,4.46,3.29.54,5.27,2.54,5.12,6.27-.16,4.13,0,8.26,0,11.33l-12-10.51c1.09-4.19-1.16-6.35-4.62-8C411.39,368.46,409.32,367.93,408.78,365.67Z" transform="translate(-62.1 -122.86)"/><path class="cls-2" d="M259.79,398.48c-3.69,3.34-8.1,5.62-12.3,8.2-3,1.85-6.21,3.34-9.32,5l-.59-.64c1.92-2.29,3.8-4.62,5.77-6.86.92-1.05,2.05-1.92,1.84-3.54L259.85,386l2.73.69c-1.08,3.09-4.1,4.89-5.32,7.88-.54,1.34-2.18,2.67-1.28,4.05S258.47,398,259.79,398.48Z" transform="translate(-62.1 -122.86)"/><path class="cls-2" d="M425.87,509c8.22-3.18,17.12-.23,25.77-4.81-1.89,4.36-3.24,8-6.06,10.74-1.87,1.83-4.29,1.7-6.49.66C434.65,513.52,430.29,511.24,425.87,509Z" transform="translate(-62.1 -122.86)"/><path class="cls-12" d="M265.35,455c0,.23.08.55,0,.67-4.49,4.71-9.23,9.16-15.95,10.31-3.15.54-5.56-1.79-8.17-3.15a4.38,4.38,0,0,0,.83-.62C248.18,454.53,256.92,455.24,265.35,455Z" transform="translate(-62.1 -122.86)"/><path class="cls-9" d="M259.8,376.92c3-1.72,4.36-4.86,6.32-7.44,3.73-4.92,7.26-10,10.89-15a6.7,6.7,0,0,0,1.58-3.37c.82-.5.67-1.31.69-2.07,2.78-.78,2.91,2.11,4.34,3.19,1.21.92,0,1.63-.54,2.24-8.53,10.36-17.27,20.53-26.78,30C256,381.28,259.62,379.9,259.8,376.92Z" transform="translate(-62.1 -122.86)"/><path class="cls-10" d="M289.76,541.86c-3.95,1.31-8.11,1.27-12.15,1.36-11.21.27-22.43,0-33.65.16-3.67.06-5.62-1.45-6.45-4.83,16.48,1.87,33,2.57,49.6,2.85C288,541.41,289,541.2,289.76,541.86Z" transform="translate(-62.1 -122.86)"/><path class="cls-9" d="M330.8,583.7c0-.2,0-.41,0-.62,12-5.16,21.4-13.89,30.82-22.57,1.26-1.17,2.65-2.2,4-3.3,0,3.79-3.61,5.17-5.46,7.66a75,75,0,0,1-17.1,16.5C339.35,584,335.56,586.52,330.8,583.7Z" transform="translate(-62.1 -122.86)"/><path class="cls-2" d="M352.43,333.73c-3.69-2.17-6.45-.74-9.39,1.87-4.52,4-9.4,7.67-14.16,11.44a5.57,5.57,0,0,1-1.57.6c1.57-3.85,4.92-6.37,7.7-9.07,3.79-3.67,7.55-7.41,11.36-11.07,4.46-4.3,8-3.71,10.44,1.91Z" transform="translate(-62.1 -122.86)"/><path class="cls-9" d="M110.4,550.41c9.95-.76,19.26,1.6,28.2,5.75,2,.92,4,1.83,6,2.69a4.47,4.47,0,0,1,2.72,2.51,1.88,1.88,0,0,1-.2,2.24c-.62.64-1.27.36-1.92.08-1.9-.83-3.81-1.65-5.7-2.54-1.26-.59-2.46-1.34-4-1C127.89,555.09,119.34,552.25,110.4,550.41Z" transform="translate(-62.1 -122.86)"/><path class="cls-3" d="M222.91,468.66a17.79,17.79,0,0,1,.79-3.69c.67-1.56.45-4.24,3.64-3.27,1.2.37,1.56-1.07,2.21-1.85a10.65,10.65,0,0,1,7.57-4.33c2.22-.18,3.24,1.56,4.87,2.28-4.42,4.21-9.55,7.39-14.77,10.47A5.89,5.89,0,0,1,222.91,468.66Z" transform="translate(-62.1 -122.86)"/><path class="cls-2" d="M408.78,365.67c.54,2.26,2.61,2.79,4.3,3.58,3.46,1.62,5.71,3.78,4.62,8-2.57-1.32-3.47-4.84-6.81-5.13-1.62-2.63-4.49-4.21-5.83-7.14a3.22,3.22,0,0,0-2.44-1.61c-1.32.05-.88,1.66-1.14,2.53a19.42,19.42,0,0,0-.38,4.06c-6-2.65-7.49-8-3.41-12.55l6.94,5.41c.19.71.75.84,1.38.86Z" transform="translate(-62.1 -122.86)"/><path class="cls-5" d="M504.37,583.62c-3.26.84-6.41,1.93-8.93,4.27a6.52,6.52,0,0,0-2,6.82c1.81,8,3.77,16.09,3.69,24.42,0,5.94-3.45,10.07-7.75,13.6-.46.38-1.31.29-2,.42.15-1.55-.54-2.25-2.09-2.09,1.05-2.21,4.71-1.8,4.88-4.88,2.22,1.07,3.19-.06,4.19-2,2.33-4.5,1.16-9,.48-13.56-.84-5.57-1.81-11.11-3.15-16.59-.73-3,1.48-7.37,4.33-8.71,2.48-1.17,4.71-3,7.64-3.11C503.93,582.69,504.15,583.16,504.37,583.62Z" transform="translate(-62.1 -122.86)"/><path class="cls-9" d="M126.7,563.65c2.91-.23,4.39,2.11,6.29,3.62a73.69,73.69,0,0,1,11.92,11.83,21.76,21.76,0,0,0,2.8,2.52c3.08,5.12,8.1,8.18,12.56,11.85a19.05,19.05,0,0,1,1.41,1.43c-6.6-1.26-11.27-5.49-15.61-10.18-4.78-5.16-8.69-11.07-13.78-16C130.48,567,128.57,565.34,126.7,563.65Z" transform="translate(-62.1 -122.86)"/><path class="cls-2" d="M351.67,467.4a2.64,2.64,0,0,1,1.48-2.14c5.84-4.05,11.59-8.19,15.82-14.06,1.34-1.87,3.11-3.05,5.58-2.59-1.85,5.85-6.61,9.4-10.48,13.74C360.58,466.27,356.19,466.69,351.67,467.4Z" transform="translate(-62.1 -122.86)"/><path class="cls-9" d="M348.88,567.45c-.17-2.08,1.66-2.88,2.7-4.19,1.61-2,4.27-3.22,5-6,3-3.14,5.95-6.39,9.12-9.38,1.94-1.83,3.78-4.14,7-3.87,1,1.13,1.14,2.2-.22,3.19C364,553.27,357,561.05,348.88,567.45Z" transform="translate(-62.1 -122.86)"/><path class="cls-9" d="M450,456.9l-.81.71a38.72,38.72,0,0,0-21.08-8.88c-7.76-.9-14.7,3.32-22.82,3.46C418.28,444.41,438.39,446,450,456.9Z" transform="translate(-62.1 -122.86)"/><path class="cls-2" d="M451.7,453.57c3.89-.17,6.29,2.72,8.75,4.87,3.12,2.73,6.82,5.2,8.21,9.49.33,1.05,1.31,2.36.22,3.18s-1.61-.89-2.5-1.26a11.38,11.38,0,0,0-1.3-.37c.25-1.9-1.3-2.86-2.23-4.1C459.58,461,455.58,457.35,451.7,453.57Z" transform="translate(-62.1 -122.86)"/><path class="cls-9" d="M119.32,563.46l-20.09-2.7a4.12,4.12,0,0,1-3.72-3.52A40.74,40.74,0,0,1,119.32,563.46Z" transform="translate(-62.1 -122.86)"/><path class="cls-9" d="M262.58,386.65l-2.73-.69,18-19.62c.33,2.64-1.72,4.19-3,6C271.3,377.54,267.65,382.72,262.58,386.65Z" transform="translate(-62.1 -122.86)"/><path class="cls-10" d="M352.38,536.47c.46,3.2-.92,4.38-4.1,4.09-5.16-.46-10.25,1.16-15.42.66-1.2-.11-2.57.44-3.52-.8Z" transform="translate(-62.1 -122.86)"/><path class="cls-9" d="M455.48,441.65c5.17,1.09,7.69,5.52,11.1,8.82,1.3,1.26-.41,2-.72,3a34.78,34.78,0,0,0-12.55-9.11v-.48A1.91,1.91,0,0,0,455.48,441.65Z" transform="translate(-62.1 -122.86)"/><path class="cls-12" d="M206.22,365.73l-.71,0c-.76-3.45.6-6.81.41-10.27a3.64,3.64,0,0,1,2.06-3.7c.51,4,1.25,7.89,1,11.91C207.51,363.56,207.42,365.4,206.22,365.73Z" transform="translate(-62.1 -122.86)"/><path class="cls-8" d="M206.22,365.73c1.2-.33,1.29-2.17,2.8-2.09,1,4.15.61,8.35.54,12.55C206.26,373.4,206,369.65,206.22,365.73Z" transform="translate(-62.1 -122.86)"/><path class="cls-10" d="M330.18,292a2.18,2.18,0,0,1,.73-3.7c4.46-1,5.25-4.77,6.68-8.11C338.48,286.26,334.73,289.39,330.18,292Z" transform="translate(-62.1 -122.86)"/><path class="cls-10" d="M452.63,443.72c-5.1-.81-10.07-2.54-15.32-2.38,5.4-1.22,10.63-1.32,15.29,2.42Z" transform="translate(-62.1 -122.86)"/><path class="cls-5" d="M374.45,456.31c.68,6.9,1.27,5.6-6.72,7.46Z" transform="translate(-62.1 -122.86)"/><path class="cls-5" d="M369.18,389.42c1.95.59,1.81,2.49,2.13,3.87.66,2.89,3.16,5.33,2.17,8.62-2.44-1.69-1.84-4.63-2.83-6.92A38.31,38.31,0,0,1,369.18,389.42Z" transform="translate(-62.1 -122.86)"/><path class="cls-12" d="M433.64,673.53c3.28-1.11,6.51-2.49,10.11-2.08A25.14,25.14,0,0,1,433.64,673.53Z" transform="translate(-62.1 -122.86)"/><path class="cls-12" d="M500,647.82a12.71,12.71,0,0,1,6.31-6.29C505.15,644.61,502.78,646.44,500,647.82Z" transform="translate(-62.1 -122.86)"/><path class="cls-13" d="M394.64,673.63c4.57-.28,8.92,1,13.33,1.84a.49.49,0,0,0-.38.17A41.23,41.23,0,0,1,394.64,673.63Z" transform="translate(-62.1 -122.86)"/><path class="cls-3" d="M407.59,675.64a.49.49,0,0,1,.38-.17c3.7.8,7.43-.92,11.13.15A26.3,26.3,0,0,1,407.59,675.64Z" transform="translate(-62.1 -122.86)"/><path class="cls-10" d="M327.33,540.6c-1.68,3-3.92,0-5.84.54C323.37,540.28,325.36,540.54,327.33,540.6Z" transform="translate(-62.1 -122.86)"/><path class="cls-5" d="M279.28,349.06c0,.76.13,1.57-.69,2.07a2.12,2.12,0,0,1-1.4-2.09Z" transform="translate(-62.1 -122.86)"/><path class="cls-10" d="M312.68,541.37c-1.86,1.14-3.86.4-5.8.47C308.75,541,310.75,541.58,312.68,541.37Z" transform="translate(-62.1 -122.86)"/><path class="cls-12" d="M183.23,674.26c-.71,2.07-1.75,1.69-2.9.39A4.28,4.28,0,0,1,183.23,674.26Z" transform="translate(-62.1 -122.86)"/><path class="cls-9" d="M119.67,559.41c1.06-.08,2.16-.23,2.3,1.31A3.74,3.74,0,0,1,119.67,559.41Z" transform="translate(-62.1 -122.86)"/><path class="cls-9" d="M124.48,562.21c1.11-.06,2.33-.3,2.23,1.47A3.67,3.67,0,0,1,124.48,562.21Z" transform="translate(-62.1 -122.86)"/><path class="cls-9" d="M279.33,364.43c0,1-.09,2.05-1.56,1.94A3.06,3.06,0,0,1,279.33,364.43Z" transform="translate(-62.1 -122.86)"/><path class="cls-12" d="M186,673.63c-.33,1.27-.81,1.55-1.53.22Z" transform="translate(-62.1 -122.86)"/><path class="cls-12" d="M177,675.06c-.34,1.25-.82,1.49-1.52.21Z" transform="translate(-62.1 -122.86)"/><path class="cls-9" d="M213.48,429.61c-.68.26-1.18,1.08-2.13.66.26-.81.93-1.09,1.6-1.38Z" transform="translate(-62.1 -122.86)"/><path class="cls-10" d="M346.12,534.18c.62-.77,1.47-.6,2.29-.53A2.48,2.48,0,0,1,346.12,534.18Z" transform="translate(-62.1 -122.86)"/><path class="cls-3" d="M406,363.65c-.63,0-1.19-.15-1.38-.86Z" transform="translate(-62.1 -122.86)"/><path class="cls-6" d="M222.45,200.07a1.71,1.71,0,0,1,.31,1.76A1.67,1.67,0,0,1,222.45,200.07Z" transform="translate(-62.1 -122.86)"/><path class="cls-12" d="M506.24,641.56c-.42-.86.61-1.15.71-1.81C507,640.45,507.15,641.22,506.24,641.56Z" transform="translate(-62.1 -122.86)"/><path class="cls-9" d="M369,554.26a1.21,1.21,0,0,1-1.21,1Z" transform="translate(-62.1 -122.86)"/><path class="cls-2" d="M480.29,467.39l-.49-1.45Z" transform="translate(-62.1 -122.86)"/><path class="cls-9" d="M120.63,564.19l-.74-.5Z" transform="translate(-62.1 -122.86)"/><path class="cls-10" d="M453.31,443.84v.48c-.41,0-.71-.1-.68-.6l0,0Z" transform="translate(-62.1 -122.86)"/><path class="cls-9" d="M122,560.72l.67.49Z" transform="translate(-62.1 -122.86)"/><path class="cls-2" d="M450.6,452.77l.6.52Z" transform="translate(-62.1 -122.86)"/><path class="cls-9" d="M366.3,556.55l-.73.69Z" transform="translate(-62.1 -122.86)"/><path class="cls-9" d="M367,555.92l-.72.63Z" transform="translate(-62.1 -122.86)"/><path class="cls-9" d="M367.73,555.27l-.67.61Z" transform="translate(-62.1 -122.86)"/><path class="cls-9" d="M280,363.65l-.61.73Z" transform="translate(-62.1 -122.86)"/><path class="cls-9" d="M372.42,543.3l-.52-.75Z" transform="translate(-62.1 -122.86)"/><path class="cls-5" d="M375.15,420l-.46-.8Z" transform="translate(-62.1 -122.86)"/><path class="cls-5" d="M210.34,434.93l-.69.45Z" transform="translate(-62.1 -122.86)"/><path class="cls-12" d="M498.88,648.51c.18-.54.49-.89,1.13-.73C499.86,648.37,499.39,648.47,498.88,648.51Z" transform="translate(-62.1 -122.86)"/><path class="cls-9" d="M330.11,608.07c10.34,3.86,19.44,10.16,29.41,14.79,13.33,6.18,27.34,9.61,41.79,11.72A157.39,157.39,0,0,0,430,635.87c12.1-.45,24.09-2,35.68-5.8a13.59,13.59,0,0,1,5.73-1.11,2.49,2.49,0,0,0,1.5,1.46c-23.12,13.46-48,17.13-74.24,13.49-17.89-2.49-33.77-10-48.7-19.85-11.91-7.8-23.84-15.53-38-18.67,1.47-1.44,3.29-.89,4.89-.63A64.61,64.61,0,0,1,330.11,608.07Z" transform="translate(-62.1 -122.86)"/><path class="cls-14" d="M312,605.39c14.18,3.14,26.11,10.87,38,18.67,14.93,9.8,30.81,17.36,48.7,19.85,26.21,3.64,51.12,0,74.24-13.49,1.31-.19,2.92-1.9,3.82.26.74,1.78-1.18,2.22-2.26,2.86-2.64,1.55-5.36,3-8,4.45a.74.74,0,0,0-.59.16l-.9.51-1.28.44-13.9,5-1.34.28-1.06.46-1.72.24-1.07.46c-1,.15-2.06.24-3.07.45a122.72,122.72,0,0,1-41.08,1.49C382,645.15,365.3,638,349.8,627.92c-1.14-.74-2.14-1.82-3.66-1.81a110.73,110.73,0,0,0-25.66-14.45c-4.22-1.67-8.57-3.17-13.21-3.37-16.06-1.35-31.75,1.58-47.48,4a8.1,8.1,0,0,0-3,.23c-2.07.66-3.33,0-3.21-2.38l1.35-.8c1.25.34,2.35-.26,3.48-.6,4.68-.57,9.36-1.12,14-1.72,12-1.54,24-3.41,36.12-2l.31.15.35-.05Z" transform="translate(-62.1 -122.86)"/><path class="cls-9" d="M266.78,600.53c-1-4.1-1-3.89,3.18-4.34,12.48-1.33,25-1.67,37.48-3.31,13.46-1.76,27-3.14,40.16-6.43,5.59-1.4,11.07-3.2,16.6-4.82.07,2.3,3.36,3,2.8,5.61-16.5,5-33.46,7.56-50.5,9.66C300,598.94,283.27,598.19,266.78,600.53Z" transform="translate(-62.1 -122.86)"/><path class="cls-9" d="M209,554.81c-.52-4,1.8-3,3.93-2.17,16.32,6.79,32.92,12.8,49.75,18.18,7.57,2.42,15.26,4.46,22.88,6.75,2.51.76,5.12,1.33,6.94,3.61,1.14,1.42,3,1.55,4.71,1.86,2.33.41,4.69,4.13,4.13,6.36-.15.61-.66,1.24-1.16,1.09-3.06-.92-6.67-.34-9.05-3.19,1.83.23,3.65.52,5.49.67a1.34,1.34,0,0,0,1.59-1.41,1.29,1.29,0,0,0-1.07-1.52c-.79-.17-1.56-.43-2.36-.57A282.59,282.59,0,0,1,233.19,566C225,562.48,217.05,558.55,209,554.81Z" transform="translate(-62.1 -122.86)"/><path class="cls-14" d="M266.78,600.53c16.49-2.34,33.21-1.59,49.72-3.63,17-2.1,34-4.66,50.5-9.66,9.25-1.87,18.11-5,27-8,1.61-.53,3.14-1.5,5-1.09,1.22,2.41-.44,2.93-2.21,3.57a355.31,355.31,0,0,1-49.92,13.83c-10.39,2.12-20.92,3.34-31.39,4.92-9.48.46-18.92,1.35-28.42,1.58-6.33.16-12.72.25-18.92,2-.56-.09-1.12-.18-1.5.39l-1.28.25c-1.12-.21-2.84.52-2.88-1.52,0-1.75,1.46-1.76,2.7-2A13.74,13.74,0,0,0,266.78,600.53Z" transform="translate(-62.1 -122.86)"/><path class="cls-2" d="M187.37,574.77c-1-2.29-3.59-3.54-3.82-6.32-.06-.81-.42-1.55.26-2.24s1.58-.32,2.23,0c2.5,1.39,4.85,3.07,7.43,4.3,16.52,7.91,33,15.92,51,20.12a6.71,6.71,0,0,1,2.72,4.86c.19,1.11.51,2.66-1.49,2.74.07-2.32-1.79-2.33-3.31-2.72A247.79,247.79,0,0,1,187.37,574.77Z" transform="translate(-62.1 -122.86)"/><path class="cls-14" d="M209,554.81c8.07,3.74,16,7.67,24.21,11.17a282.59,282.59,0,0,0,61.57,18.49c.8.14,1.57.4,2.36.57a1.29,1.29,0,0,1,1.07,1.52A1.34,1.34,0,0,1,296.6,588c-1.84-.15-3.66-.44-5.49-.67A317,317,0,0,1,239,571.94a293,293,0,0,1-29-13.32C208.3,557.73,206.07,556.92,209,554.81Z" transform="translate(-62.1 -122.86)"/><path class="cls-2" d="M399,578.14c-1.83-.41-3.36.56-5,1.09-8.93,3-17.79,6.14-27,8,.56-2.61-2.73-3.31-2.8-5.61,9.34-3.47,18.72-6.81,28-10.49,2.84-1.12,4.55.1,6.46,1.61C400.75,574.41,399.24,576.32,399,578.14Z" transform="translate(-62.1 -122.86)"/><path class="cls-2" d="M282.87,571.14c-2.61.17-5.18.16-6.83-2.37-1.2-1.84-.93-3,1.54-3.17,6.67-.41,13.31-1,19.92-2,12.19-1.91,24.33-4,36.09-7.8,4.6-1.51,6.7-.51,8.42,3.8a27.14,27.14,0,0,1-7.68,2.56l-.71.42-1.43.26c-3.61-1.79-7.18.12-10.73.34-7.18.44-14.32,1.58-21.47,2.46-5.33.65-10.65,1.38-16,2-1.62.19-2.06.76-1.23,2.19Z" transform="translate(-62.1 -122.86)"/><path class="cls-14" d="M187.37,574.77a247.79,247.79,0,0,0,55,20.78c1.52.39,3.38.4,3.31,2.72-1.39,1.47-3,.76-4.51.37A256.77,256.77,0,0,1,191,580.38c-.72-.35-1.49-.58-2.23-.87-2.11-1.16-4.22-2.34-6.34-3.49-1-.56-1.71-1.29-1.13-2.49.68-1.4,1.69-.68,2.62-.27Z" transform="translate(-62.1 -122.86)"/><path class="cls-2" d="M265.37,604.64l1.28-.25c.87,1.26,1.26.72,1.5-.39,6.2-1.71,12.59-1.8,18.92-2,9.5-.23,18.94-1.12,28.42-1.58.25,1.63,1.6,1.68,2.81,2.08q4.74,1.58,9.42,3.35c1,.39,2.29.69,2.39,2.18a64.61,64.61,0,0,0-13.27-3.31c-1.6-.26-3.42-.81-4.89.63l-2.74-.24c-.18-.31-.39-.38-.66-.1-12.15-1.4-24.13.47-36.12,2-4.67.6-9.35,1.15-14,1.72v-1.4C260.65,606.28,263.68,607.17,265.37,604.64Z" transform="translate(-62.1 -122.86)"/><path class="cls-14" d="M334.33,562.13a27.14,27.14,0,0,0,7.68-2.56,11.41,11.41,0,0,0,1.31-.33c1.14-.4,2.45-1.35,3.2.35s-.7,2.13-1.8,2.71c-6.85,2.61-13.89,4.62-21,6.54l-2.74.48-.87.39c-10.6,1.59-21.23,2.82-32,2.44-1.82-.06-3.71.24-5.3-1l-.1-1.36a3.64,3.64,0,0,1,3.21-.86,109.22,109.22,0,0,0,18.62-.56c9.38-.91,18.68-2.31,27.59-5.55l1.43-.26Z" transform="translate(-62.1 -122.86)"/><path class="cls-2" d="M466.43,638c2.68-1.48,5.4-2.9,8-4.45,1.08-.64,3-1.08,2.26-2.86-.9-2.16-2.51-.45-3.82-.26a2.49,2.49,0,0,1-1.5-1.46,47.41,47.41,0,0,1,13.86-6.62c1.93-.61,4.29,1.23,4.94,3.84-.17,3.08-3.83,2.67-4.88,4.88a4.61,4.61,0,0,0-2.78.7c-1.87.49-3.72,1-4.88,2.78-1.46-.11-2.57.69-3.79,1.32C471.56,637.06,469.16,638.17,466.43,638Z" transform="translate(-62.1 -122.86)"/><path class="cls-5" d="M258.4,607.38v1.4c-1.13.34-2.23.94-3.48.6C255.38,607.49,256.91,607.47,258.4,607.38Z" transform="translate(-62.1 -122.86)"/><path class="cls-2" d="M320.15,569.71l.87-.39Z" transform="translate(-62.1 -122.86)"/><path class="cls-3" d="M466.43,638c2.73.18,5.13-.93,7.45-2.13,1.22-.63,2.33-1.43,3.79-1.32,2-.21,4-.51,4.88-2.78a4.61,4.61,0,0,1,2.78-.7c1.55-.16,2.24.54,2.09,2.09a2,2,0,0,0-2.09,2.09h-.69a1.27,1.27,0,0,0-1.4,1.39c-8.14,5.37-17.45,7.7-26.68,10.15-10.11,2.67-20.3,5.1-30.45,7.62a19.7,19.7,0,0,1-2,.33c-1.1-1.06-1.25-.18-1.39.7h-1.39c-1.11-1.06-1.25-.19-1.39.7h-1.39c-2.14-.65-4.12-.67-5.58,1.39h-1.39c-1.78-.9-3.55-1.67-4.87.69h-2.09a1.68,1.68,0,0,0-2.78,0H399a1.26,1.26,0,0,0-1.4-1.38c-1-.11-2.05.32-2.78-.7-.22-2.11-1.87-2.42-3.48-2.79A53.59,53.59,0,0,1,376.05,652c-4.22-4.88-8.52-9.66-14.89-11.81a27.19,27.19,0,0,1-14.67-12,5.54,5.54,0,0,1-.35-2c1.52,0,2.52,1.07,3.66,1.81C365.3,638,382,645.15,400.42,647.53A122.72,122.72,0,0,0,441.5,646c1-.21,2.05-.3,3.07-.45l1.07-.46,1.72-.24,1.06-.46,1.34-.28c.36.24.77.74,1.08.69,4.21-.7,8.06-2.51,12-4,.75-.29.86-1,.81-1.74l1.28-.44.9-.51A.74.74,0,0,1,466.43,638Z" transform="translate(-62.1 -122.86)"/><path class="cls-5" d="M412.93,657.52c1.46-2.06,3.44-2,5.58-1.39A10.58,10.58,0,0,1,412.93,657.52Z" transform="translate(-62.1 -122.86)"/><path class="cls-5" d="M406.67,658.21c1.32-2.36,3.09-1.59,4.87-.69C410.08,658.86,408.29,657.94,406.67,658.21Z" transform="translate(-62.1 -122.86)"/><path class="cls-5" d="M391.36,653.34c1.61.37,3.26.68,3.48,2.79C393.26,655.72,391.86,655.09,391.36,653.34Z" transform="translate(-62.1 -122.86)"/><path class="cls-5" d="M401.8,658.21a1.68,1.68,0,0,1,2.78,0A1.68,1.68,0,0,1,401.8,658.21Z" transform="translate(-62.1 -122.86)"/><path class="cls-5" d="M485.33,635.24a2,2,0,0,1,2.09-2.09A2,2,0,0,1,485.33,635.24Z" transform="translate(-62.1 -122.86)"/><path class="cls-5" d="M483.24,636.63a1.27,1.27,0,0,1,1.4-1.39A1.27,1.27,0,0,1,483.24,636.63Z" transform="translate(-62.1 -122.86)"/><path class="cls-5" d="M422.68,655.43c.14-.88.29-1.76,1.39-.7A1.4,1.4,0,0,1,422.68,655.43Z" transform="translate(-62.1 -122.86)"/><path class="cls-5" d="M419.9,656.13c.14-.89.28-1.76,1.39-.7A1.45,1.45,0,0,1,419.9,656.13Z" transform="translate(-62.1 -122.86)"/><path class="cls-5" d="M397.62,656.83a1.26,1.26,0,0,1,1.4,1.38A1.26,1.26,0,0,1,397.62,656.83Z" transform="translate(-62.1 -122.86)"/><path class="cls-14" d="M344.1,405.47c3.46,1.43,3.56,1.88,1.07,4.71-9.93,11.26-22.39,18.76-36.08,24.47a285.89,285.89,0,0,1-30.41,10.25,10.71,10.71,0,0,1-2.05.18c-1.13-1.73-.63-2.88,1.25-3.53,6.06-1.83,12.18-3.46,18.15-5.52,12.34-4.25,24.37-9.17,34.76-17.36C335.86,414.92,340.89,411.11,344.1,405.47Z" transform="translate(-62.1 -122.86)"/><path class="cls-9" d="M330.79,418.67C320.4,426.86,308.37,431.78,296,436c-6,2.06-12.09,3.69-18.15,5.52,1.48-3.4,5-3.91,7.82-5.05,11.83-4.86,23.11-10.92,34.89-15.86,2.13-.89,4.25-1.78,6.3-2.82A2.73,2.73,0,0,1,330.79,418.67Z" transform="translate(-62.1 -122.86)"/><path class="cls-2" d="M259.79,612.33c15.73-2.46,31.42-5.39,47.48-4-.4,1.08-1.31,1.15-2.27,1.18-12.93.45-25.58,2.76-38.21,5.37C264.24,615.37,261.12,615.93,259.79,612.33Z" transform="translate(-62.1 -122.86)"/><path class="cls-2" d="M325.92,349a2.08,2.08,0,0,1-2.09,1.4C323.9,349,324.91,349,325.92,349Z" transform="translate(-62.1 -122.86)"/><path class="cls-5" d="M463.66,639.1c0,.73-.06,1.45-.81,1.74-4,1.49-7.8,3.3-12,4-.31,0-.72-.45-1.08-.69Z" transform="translate(-62.1 -122.86)"/><path class="cls-2" d="M465.84,638.15l-.9.51Z" transform="translate(-62.1 -122.86)"/><path class="cls-5" d="M448.42,644.43l-1.06.46Z" transform="translate(-62.1 -122.86)"/><path class="cls-5" d="M445.64,645.13l-1.07.46Z" transform="translate(-62.1 -122.86)"/><path class="cls-9" d="M308.55,605.05c.27-.28.48-.21.66.1l-.35.05Z" transform="translate(-62.1 -122.86)"/><path class="cls-3" d="M268.15,604c-.24,1.11-.63,1.65-1.5.39C267,603.82,267.59,603.91,268.15,604Z" transform="translate(-62.1 -122.86)"/><path class="cls-9" d="M332.19,562.81c-8.91,3.24-18.21,4.64-27.59,5.55a109.22,109.22,0,0,1-18.62.56,3.64,3.64,0,0,0-3.21.86c-.83-1.43-.39-2,1.23-2.19,5.34-.6,10.66-1.33,16-2,7.15-.88,14.29-2,21.47-2.46C325,562.93,328.58,561,332.19,562.81Z" transform="translate(-62.1 -122.86)"/><path class="cls-9" d="M334.33,562.13l-.71.42Z" transform="translate(-62.1 -122.86)"/><path class="cls-5" d="M482.55,631.76c-.86,2.27-2.84,2.57-4.88,2.78C478.83,632.79,480.68,632.25,482.55,631.76Z" transform="translate(-62.1 -122.86)"/></svg>